<svg width="1630" height="685" viewBox="0 0 1630 685" fill="none" xmlns="http://www.w3.org/2000/svg">
<path opacity="0.02" fill-rule="evenodd" clip-rule="evenodd" d="M223.825 627.447C216.623 649.196 217.236 659.144 217.714 666.896C217.823 668.669 217.925 670.327 217.925 671.985C217.925 675.464 218.938 677.924 219.776 679.961C220.369 681.402 220.875 682.632 220.875 683.862C220.875 689.801 176.625 671.985 167.775 642.293C123.525 648.232 20.2756 627.447 2.57564 568.063C-21.0243 490.864 120.576 389.911 303.475 330.527C304.553 328.512 305.639 326.481 306.734 324.433C326.613 287.253 349.419 244.599 380.175 193.943C381.683 191.211 383.176 188.509 384.651 185.84L384.701 185.75L384.718 185.719C412.061 136.239 433.275 97.85 433.275 78.1442C433.275 69.2366 430.325 66.2674 427.375 66.2674C424.425 66.2674 430.325 63.2982 433.275 63.2982C436.225 63.2982 445.075 66.2674 450.975 69.2366C471.625 84.0827 489.325 101.898 489.325 110.805C489.325 116.744 465.725 158.313 430.325 217.697L377.225 306.773C442.125 291.927 507.025 283.019 574.875 277.081C595.525 235.512 607.325 190.974 604.375 149.405C595.525 42.5137 477.525 27.6677 403.775 36.5754C253.325 51.4214 120.576 176.128 126.476 220.666C126.476 229.574 138.276 241.451 191.376 247.389C194.326 247.389 197.276 250.358 191.376 253.327C158.926 256.297 138.275 253.327 123.525 250.358C111.725 247.389 88.1255 235.512 85.1755 208.789C76.3255 134.559 212.025 15.7909 389.025 0.944866C498.175 -7.96275 630.925 45.483 648.625 188.005C651.575 217.697 648.625 247.389 636.825 277.081H636.826C652.749 277.081 667.812 277.081 680.625 277.548C700.588 246.251 726.113 214.858 751.638 191.231C781.051 161.53 810.464 140.739 833.995 137.769C863.408 131.828 901.645 161.529 904.587 185.291C907.528 209.052 801.64 313.006 713.4 327.857C698.693 357.558 695.752 381.319 695.752 393.199C695.752 402.11 701.635 402.11 710.459 402.11C722.224 399.14 736.931 393.199 742.813 387.259C788.214 355.741 858.251 302.109 918.594 231.697C935.33 205.607 956.311 179.991 978.708 158.645C1011.11 126.047 1040.57 108.266 1067.08 99.3757H1072.97C1099.48 96.4123 1131.89 111.23 1134.83 134.937C1137.78 152.718 1102.43 191.243 1087.7 197.17C1087.7 197.17 1084.76 197.17 1087.7 194.206C1096.54 179.389 1114.21 134.937 1111.27 123.083C1111.27 120.12 1108.32 117.156 1105.38 120.12C1067.08 126.047 1008.17 188.279 972.817 250.512C946.305 297.927 934.522 333.489 934.522 348.306C934.522 357.196 940.414 360.16 949.251 360.16C961.034 357.196 978.709 348.306 984.6 345.342C1026.81 316.147 1085.56 265.558 1135.46 208.477C1161.39 162.262 1202.64 118.231 1237.66 102.388C1249.47 87.5459 1276.04 63.7992 1296.7 60.8308C1338.04 54.8941 1370.51 81.6092 1379.37 114.261C1399.81 112.548 1419.27 108.86 1433.21 106.045C1437.64 97.2049 1441.55 89.6811 1444.53 84.4312C1453.36 63.6522 1456.3 42.8733 1447.47 39.9048C1447.47 39.9048 1459.25 36.9364 1471.02 42.8732C1494.58 54.7469 1503.41 69.5891 1506.35 78.4943C1506.35 82.8405 1496.88 101.504 1484.88 125.168C1480.49 133.83 1475.76 143.161 1471.02 152.705C1479.86 137.863 1491.63 120.052 1503.41 105.21C1526.96 75.5259 1577.01 16.1574 1597.62 7.25215C1606.45 4.28373 1627.06 28.0311 1630 51.7785C1630 57.7154 1630 78.4944 1624.11 84.4312C1624.11 80.0851 1622.53 77.3298 1620.53 73.8363C1619.8 72.5575 1619.01 71.1799 1618.22 69.5891C1612.34 63.6522 1603.5 60.6838 1588.78 63.6522C1559.34 72.5575 1532.85 87.3996 1500.46 125.989C1459.25 179.421 1429.81 232.852 1415.09 274.41C1409.2 292.221 1406.25 304.095 1409.2 307.063C1412.14 310.032 1409.2 313 1403.31 313C1397.42 313 1356.21 289.253 1359.15 274.41C1360.37 270.722 1361.59 266.523 1363.02 261.605C1365.04 254.649 1367.48 246.254 1370.93 235.821L1391.53 194.263C1400.62 174.115 1414.18 144.925 1426.01 120.642C1413.13 124.703 1396.98 129.12 1379.37 132.071C1382.32 185.501 1290.8 336.886 1208.13 348.76C1160.89 357.665 1116.61 339.855 1110.7 298.298C1108.66 283.953 1111.16 267.25 1116.93 249.708C1064.01 317.264 994.42 385.225 958.088 389.794C940.414 392.758 884.445 363.123 881.499 339.415C879.568 323.874 883.333 304.83 891.24 284.371C834.564 354.478 761.922 424.852 725.166 431.811C701.635 434.781 648.691 402.11 645.75 378.349C642.808 360.528 648.691 336.767 660.456 313.006C665.26 303.304 670.864 293.279 677.082 283.195C662.68 283.47 648.278 284.177 633.875 285.989C580.775 434.449 391.975 579.94 223.825 627.447ZM179.575 588.848C194.325 547.279 220.875 496.802 238.575 464.141C244.475 449.295 259.225 419.603 285.775 372.096C138.275 431.48 14.3756 544.309 46.8256 591.817C61.5756 612.601 96.9755 609.632 108.775 606.663C111.823 605.981 114.715 605.339 117.491 604.722L117.549 604.709C138.932 599.959 153.485 596.726 179.575 588.848ZM362.475 342.404C321.175 413.664 282.825 484.925 250.375 562.125C383.125 502.741 509.975 404.757 571.925 294.896C501.125 303.804 436.225 318.65 362.475 342.404ZM725.166 310.036C760.461 295.185 801.64 256.574 831.053 226.872C860.467 197.171 872.232 161.53 869.291 158.559C831.054 167.47 763.403 244.693 725.166 310.036ZM1172.7 330.95C1214.04 325.013 1302.61 215.185 1329.18 138.008C1308.51 140.976 1287.85 138.008 1273.08 132.071C1205.18 167.691 1152.04 280.488 1157.94 316.108C1157.94 327.981 1160.89 333.918 1172.7 330.95ZM1311.47 75.6725C1296.7 81.6092 1287.85 93.4826 1287.85 102.388C1287.85 114.261 1305.56 120.198 1335.09 117.229C1338.04 108.324 1338.04 102.388 1335.09 93.4826C1332.13 78.6409 1326.23 69.7358 1311.47 75.6725Z" fill="white"/>
</svg>
