<svg width="682" height="984" viewBox="0 0 682 984" fill="none" xmlns="http://www.w3.org/2000/svg">
<path opacity="0.02" d="M355.014 409.608C345.671 404.9 336.329 404.9 326.986 400.191C261.589 376.651 158.822 320.153 158.822 211.866C158.822 108.287 224.219 51.7895 345.671 51.7895C485.808 51.7895 574.562 136.536 607.26 310.737L611.932 329.569H658.644V0H611.932V23.5407C611.932 42.3732 607.26 51.7895 583.904 51.7895C574.562 51.7895 551.205 47.0813 499.822 28.2488C453.109 9.41626 401.726 0 350.343 0C144.808 0 14.0138 108.287 14.0138 282.488C9.34252 466.105 191.521 527.311 331.658 579.1C341 583.809 355.014 588.517 364.356 588.517C443.767 616.766 532.521 673.263 532.521 772.134C532.521 871.005 448.438 936.919 326.986 936.919C256.918 936.919 191.521 918.086 144.808 885.129C112.11 861.589 98.0959 847.464 88.7534 833.34C98.0959 838.048 107.438 838.048 116.781 838.048C182.178 838.048 228.89 790.966 228.89 725.053C228.89 659.139 177.507 612.057 112.11 612.057C46.7123 612.057 0 663.847 0 734.469C0 800.383 32.6986 856.88 98.0959 908.67C163.493 955.751 242.904 984 336.329 984C429.753 984 513.836 955.751 579.233 903.962C644.63 847.464 682 781.55 682 696.804C677.329 517.895 499.822 456.689 355.014 409.608Z" fill="white"/>
</svg>
