<svg width="67" height="37" fill="none" xmlns="http://www.w3.org/2000/svg"><path d="M10.5.151H8.988l-6.194 17.1c-.756 2.12-1.36 2.951-2.342 2.951H0v.757h5.59v-.756h-.605c-1.51 0-1.737-.757-1.737-1.438 0-.378.076-.757.302-1.21l1.889-5.146h6.571l3.022 7.793h-1.738v.757h6.723v-.756H18.28L10.5.15zM5.664 11.577l2.946-8.02 3.097 8.02H5.665zm20.396.378c-.151-.075-.302-.075-.453-.151-1.058-.379-2.72-1.287-2.72-3.027 0-1.664 1.058-2.572 3.022-2.572 2.266 0 3.7 1.362 4.23 4.161l.075.303h.756V5.372h-.756v.379c0 .302-.075.454-.453.454-.151 0-.529-.076-1.36-.379a6.533 6.533 0 00-2.417-.454c-3.323 0-5.438 1.74-5.438 4.54-.076 2.951 2.87 3.935 5.136 4.767.151.076.378.151.529.151 1.284.454 2.72 1.362 2.72 2.951 0 1.59-1.36 2.649-3.324 2.649-1.133 0-2.191-.303-2.946-.833-.53-.378-.756-.605-.907-.832.151.076.302.076.453.076 1.058 0 1.813-.757 1.813-1.816 0-1.06-.83-1.816-1.888-1.816-1.058 0-1.813.832-1.813 1.967 0 1.06.529 1.967 1.586 2.8 1.058.756 2.342 1.21 3.853 1.21 1.51 0 2.87-.454 3.928-1.286 1.057-.908 1.661-1.967 1.661-3.33-.075-2.875-2.946-3.858-5.287-4.615z" fill="#fff"/><path d="M35.35 3.632c.982 0 1.738-.832 1.738-1.816C37.088.756 36.332 0 35.35 0s-1.737.832-1.737 1.816c0 1.06.755 1.816 1.737 1.816z" fill="#BC1F4B"/><path d="M52.497 18.235v.303c-.075.605-.453 1.06-.982 1.06-.528 0-.83-.38-.83-.984v-7.34c0-3.632-2.191-5.902-5.59-5.902-1.51 0-2.72.454-3.701 1.287-.982.832-1.435 1.816-1.435 2.875 0 1.135.755 1.967 1.812 1.967 1.058 0 1.889-.756 1.889-1.816s-.756-1.816-1.813-1.816c-.227 0-.378.076-.529.076.151-.227.453-.53.831-.908.68-.53 1.51-.832 2.493-.832 2.341 0 3.399.908 3.399 2.8 0 2.647-2.266 3.329-4.532 4.085-.303.076-.53.151-.831.227-2.115.681-3.248 2.194-3.248 4.086 0 2.27 1.737 3.859 4.154 3.859 1.133 0 2.115-.303 2.946-.908.529-.378.982-.757 1.36-1.21.453 1.74 1.586 2.118 2.568 2.118 1.662 0 2.644-1.362 2.72-2.648v-.379h-.68zm-10.121-1.059c0-2.194 1.435-3.102 2.946-3.783.68-.379 1.586-.908 2.266-1.59V17.1c0 1.438-1.209 2.573-2.795 2.573-1.435.076-2.417-.908-2.417-2.497z" fill="#fff"/><path d="M30.97 35.562c-.227.681-.151.908-.151 1.135 0 .152.075.227.075.303 0 .151-1.133-.303-1.36-1.06-1.133.152-3.776-.378-4.23-1.891-.604-1.967 3.022-4.54 7.705-6.053.529-.984 1.133-2.119 1.964-3.48.755-1.363 1.36-2.422 1.36-2.952 0-.227-.076-.302-.151-.302-.076 0 .075-.076.15-.076.076 0 .303.076.454.151.529.379.982.833.982 1.06 0 .151-.604 1.21-1.51 2.724l-1.36 2.27c1.661-.379 3.323-.606 5.06-.757.53-1.06.831-2.194.756-3.254-.227-2.724-3.248-3.102-5.137-2.875-3.852.378-7.251 3.556-7.1 4.691 0 .227.302.53 1.662.681.075 0 .15.076 0 .152-.831.075-1.36 0-1.738-.076-.302-.076-.906-.378-.982-1.06-.226-1.891 3.249-4.918 7.78-5.296 2.796-.227 6.195 1.135 6.648 4.767a4.74 4.74 0 01-.302 2.27c.755 0 1.435 0 1.813.076.226.075.302.075-.076.075-.604 0-1.209 0-1.813.076-1.36 3.783-6.194 7.49-10.5 8.701zm-1.133-.983c.377-1.06 1.057-2.346 1.51-3.178.151-.379.53-1.135 1.209-2.346-3.777 1.513-6.95 4.389-6.118 5.6.377.529 1.284.453 1.586.378.68-.152 1.057-.227 1.813-.454zm4.683-6.28c-1.058 1.816-2.04 3.631-2.87 5.599 3.399-1.514 6.647-4.01 8.233-6.81-1.813.227-3.475.605-5.363 1.21z" fill="#BC1F4B"/><path d="M46.605 23.078c.756-.152 1.738.605 1.813 1.21.076.606-2.643 3.254-4.91 3.632-.377.757-.453 1.362-.453 1.665 0 .227.151.227.378.227.302-.076.68-.227.83-.379 1.21-.832 3.098-2.27 4.684-4.161.076-.076.227 0 .227.076-1.435 2.118-4.155 4.994-5.363 5.22-.605.076-1.964-.756-2.04-1.362-.075-.453.076-1.059.378-1.664.529-1.06 1.435-2.27 2.341-3.102.756-.757 1.511-1.287 2.115-1.362zm-2.794 4.388c.906-.378 1.964-1.362 2.719-2.118.755-.757 1.057-1.665.982-1.74-.982.226-2.72 2.194-3.701 3.858z" fill="#BC1F4B"/><path d="M50.156 25.953c-.68 1.21-.982 2.119-.982 2.497 0 .227.15.303.377.303.303-.076.756-.303.907-.379 1.209-.832 2.946-2.345 4.306-4.01 0-.076.226 0 .15.076-1.284 2.043-3.927 4.918-5.136 5.07-.453.075-1.888-.682-1.964-1.287-.15-1.21 1.058-3.254 2.493-4.616.83-.832 1.586-1.286 2.266-1.513h.151c.68-.076 1.51.303 1.586.908.076.454-.83 1.438-1.208 1.589 0 0-.076 0 0-.076.226-.378.68-1.513.604-1.816 0-.075-.076-.15-.151-.075-.982.151-2.493 1.74-3.4 3.329z" fill="#BC1F4B"/><path d="M56.954 22.17c.302-.379.982-.984 1.51-1.06a1.888 1.888 0 012.116 1.362c.906-.075 1.737-.302 1.888-.302.151-.076.302 0 0 .227-.227.075-.982.378-1.888.53.075 1.361-2.266 5.22-4.381 5.523-1.209.227-2.342-.227-2.493-1.287-.227-1.588 1.737-4.312 3.248-4.993zm-1.662 5.826c1.058-.152 3.324-2.951 4.004-4.918-.53.075-1.058 0-1.436-.152-1.737.908-3.096 3.784-2.945 4.691 0 .303.075.454.377.379zm3.55-6.507c-.377.15-.604.454-.604.68 0 .303.453.455 1.209.379a.837.837 0 000-.605c-.076-.379-.227-.606-.605-.454z" fill="#BC1F4B"/><path d="M61.486 26.558c-.151.454-.227.757-.151.833.075.075 0 .151-.151.151s-1.209-.605-1.133-.984c.075-.227.15-.53.302-.983l.529-1.06c.377-.832 1.057-2.27 1.36-2.8.226-.529.301-1.058.075-1.134 0 0 .302-.076.604.076.604.302.83.68.906.908 0 .15-.453.983-.906 1.891.227-.378.529-.832.83-1.21.605-.757 1.89-2.27 2.418-2.497.227-.076.755.53.83 1.135 0 .15 0 .68-.15.832 0-.151-.076-.227-.151-.378-.151-.152-.378-.227-.756-.152-.755.227-1.435.606-2.266 1.59-1.057 1.361-1.813 2.723-2.19 3.782z" fill="#BC1F4B"/><path d="M33.99 18.916c.907-.151 1.965-.227 2.871-.076V5.675h-4.683v.756h1.813v12.485z" fill="#fff"/></svg>