<svg width="135" height="75" fill="none" xmlns="http://www.w3.org/2000/svg"><g clip-path="url(#clip0_4_701)"><path d="M21.156.307h-3.044L5.632 34.969c-1.523 4.295-2.74 5.982-4.719 5.982H0v1.534h11.263V40.95h-1.218c-3.044 0-3.5-1.534-3.5-2.914 0-.767.152-1.534.608-2.454l3.805-10.43H24.2l6.088 15.798h-3.501v1.534h13.546V40.95h-3.501L21.156.307zm-9.741 23.16l5.935-16.26 6.24 16.258H11.415zm41.093.766c-.304-.153-.608-.153-.913-.306-2.13-.767-5.479-2.608-5.479-6.136 0-3.374 2.13-5.214 6.088-5.214 4.566 0 7.458 2.76 8.523 8.435l.152.614h1.522V10.89H60.88v.766c0 .614-.152.92-.913.92-.304 0-1.065-.153-2.74-.766-1.521-.614-3.195-.92-4.87-.92-6.696 0-10.958 3.527-10.958 9.202-.152 5.982 5.783 7.976 10.35 9.663.304.153.76.306 1.065.306 2.587.92 5.479 2.761 5.479 5.982 0 3.22-2.74 5.368-6.697 5.368-2.283 0-4.413-.613-5.935-1.687-1.066-.767-1.522-1.227-1.827-1.687.305.153.609.153.913.153 2.131 0 3.653-1.533 3.653-3.68 0-2.148-1.674-3.682-3.805-3.682-2.13 0-3.653 1.687-3.653 3.988 0 2.147 1.066 3.988 3.197 5.675 2.13 1.534 4.718 2.454 7.762 2.454 3.044 0 5.783-.92 7.914-2.608 2.13-1.84 3.348-3.987 3.348-6.748-.152-5.828-5.935-7.822-10.654-9.356z" fill="#fff"/><path d="M71.229 7.362c1.978 0 3.5-1.687 3.5-3.681C74.73 1.534 73.207 0 71.23 0c-1.979 0-3.5 1.687-3.5 3.681 0 2.147 1.521 3.681 3.5 3.681z" fill="#BC1F4B"/><path d="M105.778 36.963v.614c-.152 1.227-.913 2.147-1.979 2.147-1.065 0-1.674-.767-1.674-1.994V22.853c0-7.362-4.414-11.963-11.263-11.963-3.044 0-5.479.92-7.457 2.607-1.979 1.687-2.892 3.681-2.892 5.828 0 2.3 1.522 3.988 3.653 3.988 2.13 0 3.805-1.534 3.805-3.681 0-2.147-1.522-3.681-3.653-3.681-.457 0-.761.153-1.066.153.305-.46.914-1.073 1.675-1.84 1.37-1.074 3.044-1.687 5.022-1.687 4.718 0 6.85 1.84 6.85 5.675 0 5.368-4.567 6.748-9.133 8.282-.609.153-1.065.307-1.674.46-4.261 1.38-6.544 4.448-6.544 8.282 0 4.601 3.5 7.822 8.37 7.822 2.283 0 4.262-.613 5.936-1.84 1.066-.767 1.979-1.534 2.74-2.454.913 3.527 3.196 4.294 5.174 4.294 3.349 0 5.327-2.76 5.48-5.368v-.767h-1.37zm-20.395-2.147c0-4.448 2.892-6.288 5.936-7.669 1.37-.767 3.196-1.84 4.566-3.22v10.736c0 2.914-2.435 5.214-5.631 5.214-2.892.154-4.87-1.84-4.87-5.061z" fill="#fff"/><path d="M62.401 72.086c-.456 1.38-.304 1.84-.304 2.3 0 .307.152.46.152.614 0 .307-2.283-.614-2.74-2.147-2.282.306-7.61-.767-8.522-3.835-1.218-3.987 6.088-9.202 15.524-12.27 1.065-1.993 2.283-4.294 3.957-7.055 1.522-2.76 2.74-4.908 2.74-5.981 0-.46-.153-.614-.305-.614s.152-.153.305-.153c.152 0 .608.153.913.306 1.065.767 1.978 1.688 1.978 2.148 0 .306-1.217 2.454-3.044 5.521l-2.74 4.601c3.35-.767 6.698-1.227 10.198-1.533 1.066-2.148 1.674-4.448 1.522-6.595-.456-5.522-6.544-6.289-10.35-5.829-7.762.767-14.61 7.209-14.306 9.51 0 .46.609 1.073 3.348 1.38.153 0 .305.153 0 .307-1.674.153-2.74 0-3.5-.154-.609-.153-1.827-.767-1.979-2.147-.456-3.834 6.545-9.97 15.677-10.736 5.631-.46 12.48 2.3 13.393 9.662.152 1.534 0 3.068-.609 4.602 1.522 0 2.892 0 3.653.153.457.153.609.153-.152.153-1.218 0-2.435 0-3.653.154-2.74 7.669-12.48 15.184-21.156 17.638zm-2.283-1.994c.761-2.147 2.131-4.755 3.044-6.442.305-.767 1.066-2.3 2.436-4.754-7.61 3.067-14.003 8.895-12.328 11.35.76 1.073 2.587.92 3.196.766 1.37-.306 2.13-.46 3.652-.92zm9.437-12.73c-2.13 3.68-4.11 7.362-5.784 11.35 6.85-3.068 13.394-8.13 16.59-13.804-3.653.46-7.001 1.227-10.806 2.454z" fill="#BC1F4B"/><path d="M93.907 46.78c1.522-.308 3.5 1.226 3.653 2.453.152 1.227-5.328 6.595-9.894 7.362-.76 1.534-.913 2.76-.913 3.374 0 .46.305.46.761.46.61-.153 1.37-.46 1.675-.766 2.435-1.688 6.24-4.602 9.436-8.436.152-.153.456 0 .456.153-2.891 4.295-8.37 10.123-10.806 10.583-1.217.154-3.957-1.534-4.109-2.76-.152-.92.152-2.148.761-3.375 1.065-2.147 2.892-4.601 4.718-6.288 1.522-1.534 3.044-2.607 4.262-2.76zm-5.632 8.895c1.827-.767 3.957-2.76 5.48-4.295 1.522-1.533 2.13-3.374 1.978-3.527-1.979.46-5.48 4.448-7.458 7.822z" fill="#BC1F4B"/><path d="M101.06 52.607c-1.37 2.454-1.979 4.295-1.979 5.062 0 .46.305.613.761.613.609-.153 1.522-.613 1.827-.767 2.435-1.687 5.935-4.755 8.675-8.129 0-.153.457 0 .304.154-2.587 4.14-7.914 9.969-10.349 10.276-.913.153-3.805-1.38-3.957-2.608-.305-2.454 2.13-6.595 5.022-9.355 1.674-1.688 3.196-2.608 4.566-3.068h.305c1.369-.153 3.044.614 3.196 1.84.152.92-1.674 2.915-2.435 3.221 0 0-.153 0 0-.153.456-.767 1.369-3.067 1.217-3.68 0-.154-.152-.308-.304-.154-1.979.306-5.023 3.527-6.849 6.748z" fill="#BC1F4B"/><path d="M114.758 44.939c.609-.767 1.978-1.994 3.044-2.148a3.805 3.805 0 014.261 2.761c1.827-.153 3.501-.613 3.805-.613.305-.154.609 0 0 .46-.456.153-1.978.767-3.805 1.073.152 2.761-4.566 10.583-8.827 11.197-2.435.46-4.718-.46-5.023-2.608-.456-3.22 3.501-8.742 6.545-10.122zm-3.349 11.81c2.131-.307 6.697-5.982 8.067-9.97-1.066.154-2.131 0-2.892-.307-3.5 1.84-6.24 7.67-5.936 9.51 0 .613.153.92.761.767zm7.154-13.19c-.761.306-1.218.92-1.218 1.38 0 .613.913.92 2.435.767.152-.46.152-.767 0-1.227-.152-.767-.456-1.227-1.217-.92z" fill="#BC1F4B"/><path d="M123.89 53.834c-.305.92-.457 1.534-.305 1.687.152.154 0 .307-.304.307-.305 0-2.435-1.227-2.283-1.994.152-.46.304-1.073.609-1.994l1.065-2.147c.761-1.687 2.131-4.601 2.74-5.675.456-1.073.608-2.147.152-2.3 0 0 .609-.154 1.217.153 1.218.614 1.674 1.38 1.827 1.84 0 .307-.914 1.995-1.827 3.835a23.592 23.592 0 011.674-2.454c1.218-1.534 3.805-4.601 4.871-5.061.456-.154 1.522 1.073 1.674 2.3 0 .307 0 1.38-.304 1.687 0-.306-.153-.46-.305-.767-.304-.306-.761-.46-1.522-.306-1.522.46-2.892 1.227-4.566 3.22-2.13 2.761-3.652 5.522-4.413 7.67z" fill="#BC1F4B"/><path d="M68.49 38.344c1.826-.307 3.956-.46 5.783-.154V11.503h-9.437v1.534h3.653v25.307z" fill="#fff"/></g><defs><clipPath id="clip0_4_701"><path fill="#fff" d="M0 0h135v75H0z"/></clipPath></defs></svg>