<svg width="36" height="40" fill="none" xmlns="http://www.w3.org/2000/svg"><path d="M34.18 5.476h0a.426.426 0 01.315.403v17.259c0 2.028-.838 4.166-2.597 6.361-1.345 1.678-3.225 3.386-5.605 5.07-4.004 2.835-7.954 4.576-8.104 4.642h0a.47.47 0 01-.378 0h0c-.15-.066-4.1-1.807-8.104-4.641-2.38-1.685-4.26-3.393-5.604-5.071-1.76-2.195-2.598-4.333-2.598-6.361V5.878c0-.174.118-.344.315-.402h0L17.867.77h0a.474.474 0 01.266 0h0L34.18 5.476zM18.49 39.898c.168-.074 4.171-1.839 8.236-4.716l-8.236 4.716z" stroke="#fff" stroke-width="1.5"/><path fill-rule="evenodd" clip-rule="evenodd" d="M24.247 15.589L15.412 23.6l-4.174-3.785 1.222-1.347 2.952 2.678 7.614-6.904 1.22 1.347z" fill="#fff"/></svg>