<svg width="40" height="38" fill="none" xmlns="http://www.w3.org/2000/svg"><path fill-rule="evenodd" clip-rule="evenodd" d="M25.433 1.477H21.38v10.176h4.054V1.477zM21.38.013H6.552a6.552 6.552 0 100 13.104h.992v13.145l-2.2 2.2-.214.214v7.158l.215.214 1.724 1.724.214.215H19.27l.214-.215 1.724-1.724.215-.214v-5.45l-.234-.217-3.904-3.625V19.02h3.101v-5.904h6.51v-2.069h5.518V7.6H40V6.136h-7.586V2.772h-5.517V.013h-5.518zm-5.433 27.284H8.58l-1.985 1.985v5.946l1.295 1.295h10.774l1.295-1.295v-4.206l-4.012-3.725zM6.552 11.653h13.364V1.477H6.552a5.088 5.088 0 100 10.176zm12.372 1.464H9.008v12.716h6.812v-8.275h3.104v-4.441zM30.95 4.236h-3.28v5.349h3.28v-5.35z" fill="#fff"/></svg>