<svg width="42" height="42" fill="none" xmlns="http://www.w3.org/2000/svg"><path d="M16.036 42a2.48 2.48 0 01-.64-.082c-1.158-.31-1.87-1.39-2.559-2.436a5.677 5.677 0 00-1.493-1.755 5.735 5.735 0 00-2.305-.43c-1.238-.076-2.516-.157-3.347-.987-.832-.83-.911-2.11-.987-3.347a5.744 5.744 0 00-.432-2.303 5.664 5.664 0 00-1.755-1.494c-1.045-.689-2.126-1.401-2.435-2.56-.3-1.111.267-2.243.813-3.339A5.82 5.82 0 001.689 21a5.824 5.824 0 00-.793-2.265c-.546-1.095-1.11-2.228-.813-3.34.31-1.158 1.39-1.87 2.435-2.559a5.663 5.663 0 001.755-1.493 5.73 5.73 0 00.431-2.306c.077-1.236.156-2.515.987-3.347.832-.832 2.11-.91 3.347-.987a5.743 5.743 0 002.303-.431 5.677 5.677 0 001.496-1.752c.69-1.046 1.401-2.126 2.56-2.436 1.107-.294 2.243.267 3.34.813a5.82 5.82 0 002.264.79 5.82 5.82 0 002.264-.793C24.36.348 25.497-.213 26.605.08c1.158.31 1.87 1.39 2.559 2.436a5.676 5.676 0 001.496 1.755c.73.3 1.515.447 2.305.43 1.237.077 2.516.156 3.347.987.832.832.908 2.11.984 3.348a5.736 5.736 0 00.432 2.303 5.665 5.665 0 001.755 1.494c1.045.689 2.126 1.4 2.435 2.56.297 1.11-.267 2.243-.812 3.338A5.819 5.819 0 0040.312 21c.104.802.375 1.573.794 2.265.545 1.095 1.109 2.228.812 3.339-.31 1.159-1.39 1.87-2.435 2.56a5.663 5.663 0 00-1.755 1.496c-.3.73-.447 1.515-.431 2.305-.077 1.237-.155 2.515-.987 3.347-.832.833-2.11.908-3.347.985a5.746 5.746 0 00-2.305.43 5.675 5.675 0 00-1.494 1.756c-.689 1.045-1.401 2.126-2.56 2.435-1.107.296-2.243-.267-3.34-.812a5.82 5.82 0 00-2.263-.794 5.819 5.819 0 00-2.265.794 6.435 6.435 0 01-2.7.894zm0-40.8a1.28 1.28 0 00-.331.04c-.72.192-1.302 1.08-1.869 1.937a6.406 6.406 0 01-1.893 2.133 6.501 6.501 0 01-2.832.59c-1.06.066-2.062.128-2.573.638-.511.511-.573 1.513-.638 2.574a6.502 6.502 0 01-.59 2.832 6.41 6.41 0 01-2.129 1.893c-.858.566-1.744 1.15-1.936 1.868-.18.673.261 1.56.728 2.495a6.6 6.6 0 01.916 2.8 6.6 6.6 0 01-.92 2.8c-.467.937-.906 1.82-.727 2.494.192.72 1.08 1.302 1.936 1.868a6.413 6.413 0 012.134 1.894c.407.888.609 1.856.59 2.832.066 1.061.128 2.063.638 2.574.51.51 1.513.572 2.573.637a6.494 6.494 0 012.832.59c.784.56 1.43 1.29 1.894 2.134.566.857 1.15 1.744 1.867 1.936.673.18 1.56-.26 2.495-.727a6.595 6.595 0 012.8-.92 6.6 6.6 0 012.799.92c.937.467 1.823.907 2.495.727.72-.192 1.302-1.08 1.868-1.936a6.407 6.407 0 011.893-2.134 6.504 6.504 0 012.832-.59c1.061-.066 2.063-.127 2.574-.638.51-.51.572-1.512.637-2.573a6.5 6.5 0 01.59-2.832 6.409 6.409 0 012.134-1.894c.858-.566 1.744-1.15 1.936-1.868.18-.672-.261-1.56-.727-2.494a6.6 6.6 0 01-.92-2.8 6.6 6.6 0 01.92-2.8c.466-.938.906-1.822.727-2.495-.192-.72-1.08-1.302-1.936-1.867a6.413 6.413 0 01-2.134-1.895 6.503 6.503 0 01-.59-2.832c-.066-1.06-.127-2.062-.638-2.573-.51-.511-1.512-.573-2.573-.638a6.493 6.493 0 01-2.832-.59 6.412 6.412 0 01-1.894-2.13c-.565-.858-1.15-1.745-1.867-1.937-.672-.18-1.557.26-2.495.728a6.595 6.595 0 01-2.8.916 6.596 6.596 0 01-2.799-.92 5.61 5.61 0 00-2.163-.767h-.002z" fill="#fff"/><path d="M24.635 26.946a2.311 2.311 0 01-1.406-4.149 2.312 2.312 0 111.406 4.149zm0-3.822a1.51 1.51 0 10.616.13 1.504 1.504 0 00-.618-.13h.002zm-7.267-3.446a2.31 2.31 0 01-2.306-2.132 2.312 2.312 0 112.306 2.132zm0-3.822a1.51 1.51 0 10.615.13 1.51 1.51 0 00-.617-.13h.002zm-1.283 10.429a.363.363 0 01-.207-.064.388.388 0 01-.052-.584l9.832-9.815a.365.365 0 01.523.006.384.384 0 01-.006.536l-9.833 9.814a.365.365 0 01-.257.107z" fill="#fff" stroke="#fff" stroke-width=".5"/></svg>