<svg width="35" height="40" fill="none" xmlns="http://www.w3.org/2000/svg"><path fill-rule="evenodd" clip-rule="evenodd" d="M26.33 7.538c1.342-.166 2.263 1.31 1.547 2.441-.578.921-1.013 2.122-.652 3.396l.005.018.004.017.01.044c1.93 1.613 3.413 3.638 4.254 5.934h.752c1.242 0 2.25 1.01 2.24 2.243v4.013a2.25 2.25 0 01-2.249 2.248h-.677c-.776 2.227-2.152 4.217-3.953 5.822a.834.834 0 01-.055.048c-.067.065-.132.12-.182.163-1.468 1.331-1.6 2.879-1.607 3.236v1.323c0 .833-.675 1.508-1.508 1.508h-5.371a1.507 1.507 0 01-1.508-1.508v-.581a17.93 17.93 0 01-3.005-.043v.633c0 .832-.675 1.507-1.508 1.507H7.496c-.804 0-1.44-.637-1.497-1.402l-.002-.023v-.472c-.041-.869-.315-2.83-1.845-4.405l-.001-.001c-1.223-1.267-2.115-2.801-2.713-4.1a12.59 12.59 0 01-1.082-2.915 12.65 12.65 0 01.822-8.251l.325-.711.62.475a11.686 11.686 0 007.124 2.414c5.531 0 10.162-3.829 11.4-8.97a4.444 4.444 0 011.4-2.302l.003-.002c.96-.829 2.329-1.554 4.28-1.797zm1.208 26.237c-.004.003-.004.003 0 0zm-1.055-25a.354.354 0 01.34.538l-.002.003c-.665 1.062-1.288 2.631-.8 4.38.005.027.01.047.012.064l.003.023v.295l.231.188c1.979 1.598 3.444 3.64 4.195 5.939l.14.43h1.648c.558 0 .998.453.993.987v4.022c0 .55-.447 1.002-1.002 1.002h-1.588l-.135.44c-.67 2.17-1.974 4.128-3.738 5.7a.827.827 0 00-.082.071c-.04.04-.08.075-.141.128l-.007.005-.006.005c-1.835 1.66-2.013 3.617-2.024 4.147v1.342a.26.26 0 01-.26.261h-5.372a.26.26 0 01-.261-.26v-1.959l-.691.076a16.51 16.51 0 01-1.802.097c-.778 0-1.55-.056-2.302-.154l-.704-.092v2.04a.26.26 0 01-.26.26H7.495a.266.266 0 01-.253-.231v-.462c-.045-.99-.35-3.327-2.196-5.23-1.097-1.136-1.92-2.542-2.483-3.767l-.007-.013-.006-.014a11.348 11.348 0 01-.957-2.533v-.006l-.018-.072a11.407 11.407 0 01.441-6.774 12.922 12.922 0 007.23 2.204c6.121 0 11.241-4.236 12.612-9.923a3.198 3.198 0 011.007-1.655c.775-.67 1.915-1.29 3.617-1.502zm.307 24.003c.004-.003.004-.003 0 0zM25.54 18.26a.71.71 0 00-.708.707.71.71 0 00.707.708.71.71 0 00.707-.708.71.71 0 00-.707-.707zm-1.954.707c0-1.076.877-1.953 1.953-1.953 1.077 0 1.954.877 1.954 1.953a1.956 1.956 0 01-1.954 1.954 1.956 1.956 0 01-1.953-1.954z" fill="#fff"/><path fill-rule="evenodd" clip-rule="evenodd" d="M8.961 15.048a6.9 6.9 0 100-13.802 6.9 6.9 0 000 13.802zm0 1.246A8.147 8.147 0 108.961 0a8.147 8.147 0 000 16.294z" fill="#fff"/><path fill-rule="evenodd" clip-rule="evenodd" d="M8.961 9.616a1.47 1.47 0 100-2.938 1.47 1.47 0 000 2.938zm0 1.247a2.716 2.716 0 100-5.432 2.716 2.716 0 000 5.432z" fill="#fff"/></svg>