<svg width="16" height="16" fill="none" xmlns="http://www.w3.org/2000/svg"><path d="M2.193.187h11.614c1.103 0 2.005.816 2.005 2.005v11.614c0 1.189-.902 2.006-2.005 2.006H2.193c-1.103 0-2.006-.817-2.006-2.006V2.192c0-1.189.903-2.005 2.006-2.005zm9.377 1.736a.705.705 0 00-.703.703V4.31c0 .387.316.703.703.703h1.766a.706.706 0 00.703-.703V2.626a.705.705 0 00-.703-.703H11.57zm2.477 4.871H12.67c.13.425.201.875.201 1.34 0 2.6-2.175 4.706-4.857 4.706-2.682 0-4.857-2.106-4.857-4.705 0-.466.07-.916.2-1.34H1.925v6.6c0 .341.28.62.621.62h10.88a.623.623 0 00.622-.62v-6.6zm-6.032-1.87c-1.733 0-3.138 1.362-3.138 3.041 0 1.68 1.405 3.04 3.138 3.04 1.733 0 3.138-1.36 3.138-3.04s-1.405-3.04-3.138-3.04z" fill="#fff"/></svg>