<svg width="18" height="18" fill="none" xmlns="http://www.w3.org/2000/svg"><path fill-rule="evenodd" clip-rule="evenodd" d="M3 3.75c-.41 0-.75.34-.75.75v9c0 .41.34.75.75.75h12c.41 0 .75-.34.75-.75v-9c0-.41-.34-.75-.75-.75H3zM.75 4.5C.75 3.26 1.76 2.25 3 2.25h12c1.24 0 2.25 1.01 2.25 2.25v9c0 1.24-1.01 2.25-2.25 2.25H3c-1.24 0-2.25-1.01-2.25-2.25v-9z" fill="#424047"/><path fill-rule="evenodd" clip-rule="evenodd" d="M.886 4.07a.75.75 0 011.044-.184L9 8.835l7.07-4.95a.75.75 0 11.86 1.23l-7.5 5.25a.75.75 0 01-.86 0l-7.5-5.25A.75.75 0 01.886 4.07z" fill="#424047"/></svg>