<svg width="18" height="18" fill="none" xmlns="http://www.w3.org/2000/svg"><path fill-rule="evenodd" clip-rule="evenodd" d="M9 1.5a6 6 0 00-6 6c0 2.324 1.512 4.578 3.17 6.328A22.065 22.065 0 009 16.329a22.065 22.065 0 002.83-2.502C13.489 12.079 15 9.825 15 7.5a6 6 0 00-6-6zm0 15.75l-.416.624-.003-.002-.005-.003-.017-.012-.062-.042c-.053-.037-.13-.09-.226-.16a23.578 23.578 0 01-3.19-2.795C3.363 13.047 1.5 10.427 1.5 7.5a7.5 7.5 0 0115 0c0 2.927-1.863 5.547-3.58 7.36a23.58 23.58 0 01-3.417 2.955l-.062.042-.017.012-.005.003-.002.001s-.001.001-.417-.623zm0 0l.416.624a.75.75 0 01-.832 0L9 17.25z" fill="#424047"/><path fill-rule="evenodd" clip-rule="evenodd" d="M9 6a1.5 1.5 0 100 3 1.5 1.5 0 000-3zM6 7.5a3 3 0 116 0 3 3 0 01-6 0z" fill="#424047"/></svg>