<svg width="20" height="20" fill="none" xmlns="http://www.w3.org/2000/svg"><path d="M19.75.25a.806.806 0 010 1.167l-4.417 4.416h3c.5 0 .834.334.834.834 0 .5-.334.833-.834.833h-5c-.083 0-.25 0-.333-.083A1.004 1.004 0 0112.583 7c-.083-.083-.083-.25-.083-.333v-5c0-.5.333-.834.833-.834.5 0 .834.334.834.834v3L18.583.25a.806.806 0 011.167 0z" fill="#BC1D4A"/><path d="M.917 3.333v.25c.333 2.667 1.25 5.334 2.666 7.584a17.522 17.522 0 005.25 5.25c2.25 1.5 4.917 2.416 7.584 2.666.666 0 1.333-.166 1.833-.583.5-.417.833-1 .917-1.667v-2.75c0-1.25-.917-2.333-2.167-2.5a9.13 9.13 0 01-2.167-.5c-.916-.333-1.916-.083-2.666.584l-.584.583c-1.5-1-2.833-2.25-3.833-3.833l.583-.584c.667-.666.917-1.75.584-2.666A9.13 9.13 0 018.417 3C8.25 1.75 7.167.833 5.917.833h-2.5c-.667 0-1.334.25-1.75.75-.417.5-.75 1.084-.75 1.75zM17.5 14.083v2.5c0 .25-.167.5-.333.667-.167.083-.334.167-.584.167-2.416-.25-4.75-1.084-6.833-2.417-1.917-1.25-3.583-2.833-4.75-4.75-1.333-2.083-2.167-4.417-2.417-6.833 0-.334.084-.5.25-.667a.757.757 0 01.584-.25h2.5c.416 0 .75.333.833.75.083.833.333 1.667.667 2.5.083.333.083.667-.167.917L6.167 7.75a.886.886 0 00-.167 1 13.674 13.674 0 005.333 5.333c.334.084.75 0 1-.25l1.084-1.083c.166-.167.583-.25.833-.167.833.334 1.667.5 2.5.667.417 0 .75.417.75.833z" fill="#BC1D4A"/></svg>