<svg xmlns="http://www.w3.org/2000/svg" viewBox="0 0 64 64"><g id="Layer_61" data-name="Layer 61"><path d="M32 22.89A9.13 9.13 0 0022.88 32c.49 12.07 17.75 12.06 18.24 0A9.13 9.13 0 0032 22.89zm0 16.22A7.12 7.12 0 0124.88 32c.33-9.42 13.9-9.42 14.24 0A7.13 7.13 0 0132 39.11z"/><path d="M60.94 31.2a1.18 1.18 0 000-.67c-1.71-4.22-5.39-8-9.13-7.45a21.21 21.21 0 00-1.35-2.53 6.35 6.35 0 016.44.38 1 1 0 00.92 0 1 1 0 00.24-1.58c-3.22-3.23-8.1-5.3-11.32-3.29a23.9 23.9 0 00-1.92-1.57 6.26 6.26 0 016-2.08 1.07 1.07 0 00.94-.35 1 1 0 00-.37-1.56c-4.19-1.77-9.48-1.85-11.72 1.19a19.56 19.56 0 00-2.67-.83 6.23 6.23 0 014.72-4.25 1.05 1.05 0 00.73-.69 1 1 0 00-.94-1.29c-4.56 0-9.47 2-10.33 5.69a20.48 20.48 0 00-2.46.24 6.23 6.23 0 012.78-5.73 1 1 0 00.42-.91 1 1 0 00-1.35-.84c-4.23 1.7-8 5.37-7.45 9.12a22.58 22.58 0 00-2.53 1.34 6.34 6.34 0 01.37-6.43A1 1 0 0020.81 6a1 1 0 00-1.47 0c-2.77 2.77-5.4 7.91-3.28 11.33a20.7 20.7 0 00-1.57 1.91 6.24 6.24 0 01-2.08-6 1.06 1.06 0 00-.35-.95 1 1 0 00-1.56.37c-1.77 4.18-1.86 9.46 1.19 11.71a21.54 21.54 0 00-.84 2.63 6.25 6.25 0 01-4.24-4.72 1.07 1.07 0 00-.69-.73 1 1 0 00-1.29.94c0 4.56 2 9.46 5.68 10.32 0 .83.12 1.65.24 2.47a6.25 6.25 0 01-5.72-2.78 1 1 0 00-.91-.42 1 1 0 00-.85 1.35c1.74 4.18 5.2 8 9.12 7.45a21.83 21.83 0 001.34 2.53 6.38 6.38 0 01-6.43-.37 1 1 0 00-.91 0 1 1 0 00-.25 1.58c3.15 3 7.52 5.37 11.31 3.29a20.1 20.1 0 001.92 1.58 6.24 6.24 0 01-6 2.06 1.06 1.06 0 00-.94.35 1 1 0 00.36 1.56c3.64 1.54 9.18 2.14 11.72-1.18a21 21 0 002.74.83 6.37 6.37 0 01-4.81 4.28 1 1 0 00.3 1.94c4.53 0 9.41-2 10.31-5.68a20.81 20.81 0 002.48-.24 6.26 6.26 0 01-2.79 5.72A1 1 0 0033.1 61c4.33-1.39 8.4-5.42 7.82-9.19a23.59 23.59 0 002.53-1.34 6.24 6.24 0 01-.34 6.33 1 1 0 00.89 1.54 1 1 0 00.7-.29c3.22-3.21 5.28-8.08 3.29-11.3a20.22 20.22 0 001.59-1.92 6.25 6.25 0 012.06 6 1 1 0 001 1.19 1 1 0 00.92-.61c1.78-4.18 1.88-9.47-1.18-11.71a21.06 21.06 0 00.77-2.7 6.27 6.27 0 014.25 4.73 1.05 1.05 0 001 .79 1.05 1.05 0 001-1c0-4.56-2-9.47-5.69-10.33a20.45 20.45 0 00-.24-2.47 6.22 6.22 0 015.73 2.79 1.1 1.1 0 00.83.44 1 1 0 00.91-.75zm-8.82-4.31a1 1 0 00-.78 1.18 26.88 26.88 0 01.42 4.09.59.59 0 00.13.34 1 1 0 00.79.48c1.73.09 3 1.59 3.73 3.48a7.81 7.81 0 00-3.85-1.69 1 1 0 00-1 .47 31.27 31.27 0 01-1.34 4.41 1 1 0 00.16 1.12c1.72.85 2.42 2.61 2.35 4.85a7.7 7.7 0 00-2.88-3.06 1.06 1.06 0 00-1.38.3A17.85 17.85 0 0145.94 46a1 1 0 00-.3.72 1.12 1.12 0 00.26.67c1.17 1.28 1 3.21.18 5.09a7.8 7.8 0 00-1.51-3.9 1 1 0 00-1.39-.25 19.26 19.26 0 01-3.79 2 1 1 0 00-.57.65.86.86 0 000 .61c.57 1.64-.37 3.34-1.84 4.76a7.76 7.76 0 00.15-4.17 1 1 0 00-1-.82 20.89 20.89 0 01-4.1.42 1 1 0 00-.86.52v.07a.88.88 0 00-.05.15c-.12 1.85-1.51 3.14-3.53 3.94a7.87 7.87 0 001.69-3.84 1 1 0 00-.74-1.12 21.37 21.37 0 01-4.13-1.23 1 1 0 00-1.15.18c-.86 1.69-2.58 2.4-4.82 2.34a7.78 7.78 0 003-2.87 1 1 0 00-.17-1.25 45 45 0 01-3.51-2.84 1 1 0 00-.92.09c-1.36 1.21-3.27 1.12-5.24.27a7.89 7.89 0 003.9-1.51.79.79 0 00.3-.35.91.91 0 00.09-.7 31.63 31.63 0 01-2.15-4.07 1 1 0 00-1.28-.63c-1.63.57-3.33-.36-4.75-1.81 1.15.37 5.35.92 5-1.14a20.54 20.54 0 01-.44-3.98 1 1 0 00-.95-1c-1.73-.08-3-1.59-3.73-3.48a7.81 7.81 0 003.81 1.68 1 1 0 001.22-.83 19 19 0 011.19-4v-.07a1 1 0 00-.45-1.3c-1.57-.75-2.11-2.62-2.07-4.66.56 1.07 3 4.38 4.27 2.78a24.16 24.16 0 012.59-3.2 1 1 0 00.2-.54 1.18 1.18 0 00-.26-.7c-1.17-1.29-1-3.22-.18-5.1a7.73 7.73 0 001.53 3.91 1 1 0 001.39.24 31.62 31.62 0 014.09-2.25.94.94 0 00.28-.88c-.58-1.73.25-3.45 1.8-4.93a7.74 7.74 0 00-.13 4.19 1 1 0 001.18.79c1.44-.4 3-.2 4.42-.53a1 1 0 00.53-.81c.08-1.74 1.59-3 3.48-3.74a7.87 7.87 0 00-1.7 3.85 1 1 0 00.8 1.16 18.48 18.48 0 014.12 1.22 1 1 0 00.67.05 1.08 1.08 0 00.62-.53c.75-1.56 2.62-2.1 4.66-2.07a7.88 7.88 0 00-3.06 2.87 1 1 0 00.16 1.25c1.23.84 2.36 1.87 3.52 2.84a1 1 0 00.91-.09c1.37-1.21 3.27-1.12 5.25-.27a7.89 7.89 0 00-3.92 1.53 1 1 0 00-.24 1.39 18.55 18.55 0 012 3.77 1 1 0 00.45.5 1 1 0 00.68.1c1.7-.59 3.42.27 4.89 1.8a7.8 7.8 0 00-4.17-.05z"/></g></svg>