<svg width="30" height="30" fill="none" xmlns="http://www.w3.org/2000/svg"><path d="M.893.75h8.571c.08 0 .143.064.143.143v.83L.75 17.062V.893C.75.814.814.75.893.75zm20.1 5.454h0a.143.143 0 01-.015.109h0l-.415.718-15.34 8.857 8.085-14.004h0a.143.143 0 01.195-.052h0l7.423 4.286h0c.033.019.057.05.067.086zm2.694 2.818h0L9.683 17.107h17.714l.718-.415-4.428-7.67zm0 0a.143.143 0 01.195.052s0 0 0 0l4.286 7.423m-4.48-7.475l4.48 7.475m0 0a.143.143 0 01-.052.195l.052-.195zM6.82 24.788c-.037-.832-.69-1.61-1.642-1.61-.84 0-1.685.716-1.642 1.677h0c.038.832.69 1.61 1.642 1.61.841 0 1.686-.716 1.643-1.677zm0 0l-.749.034.75-.034s0 0 0 0zm-1.522-4.395h23.81c.078 0 .142.064.142.143v8.571a.143.143 0 01-.143.143H5.297A4.434 4.434 0 01.87 24.822a4.434 4.434 0 014.429-4.43z" stroke="#BC1D4A" stroke-width="1.5"/></svg>