<svg width="135" height="75" viewBox="0 0 135 75" fill="none" xmlns="http://www.w3.org/2000/svg">
<g clip-path="url(#clip0_4_701)">
<path d="M21.1556 0.306641H18.1116L5.63134 34.9692C4.10936 39.2637 2.89177 40.9508 0.913191 40.9508H0V42.4846H11.2627V40.9508H10.0451C7.00113 40.9508 6.54453 39.4171 6.54453 38.0367C6.54453 37.2698 6.69673 36.503 7.15333 35.5827L10.9583 25.1533H24.1996L30.2875 40.9508H26.7869V42.4846H40.3326V40.9508H36.832L21.1556 0.306641ZM11.4149 23.4661L17.3506 7.20848L23.5908 23.4661H11.4149Z" fill="white"/>
<path d="M52.5085 24.2332C52.2041 24.0798 51.8997 24.0798 51.5953 23.9265C49.4645 23.1596 46.1162 21.3191 46.1162 17.7915C46.1162 14.4173 48.2469 12.5768 52.2041 12.5768C56.7701 12.5768 59.6618 15.3375 60.7272 21.0123L60.8794 21.6258H62.4014V10.8896H60.8794V11.6565C60.8794 12.27 60.7272 12.5768 59.9662 12.5768C59.6618 12.5768 58.9008 12.4234 57.2266 11.8099C55.7047 11.1964 54.0305 10.8896 52.3563 10.8896C45.6596 10.8896 41.398 14.4173 41.398 20.0921C41.2458 26.0737 47.1815 28.0676 51.7475 29.7547C52.0519 29.9081 52.5085 30.0614 52.8129 30.0614C55.4003 30.9817 58.292 32.8222 58.292 36.043C58.292 39.2639 55.5525 41.4111 51.5953 41.4111C49.3123 41.4111 47.1815 40.7976 45.6596 39.724C44.5942 38.9571 44.1376 38.497 43.8332 38.0369C44.1376 38.1903 44.442 38.1903 44.7464 38.1903C46.8771 38.1903 48.3991 36.6565 48.3991 34.5093C48.3991 32.362 46.7249 30.8283 44.5942 30.8283C42.4634 30.8283 40.9414 32.5154 40.9414 34.816C40.9414 36.9633 42.0068 38.8038 44.1376 40.4909C46.2684 42.0246 48.8557 42.9449 51.8997 42.9449C54.9437 42.9449 57.6832 42.0246 59.814 40.3375C61.9448 38.497 63.1624 36.3498 63.1624 33.589C63.0102 27.7608 57.2266 25.7669 52.5085 24.2332Z" fill="white"/>
<path d="M71.2288 7.36196C73.2074 7.36196 74.7294 5.67485 74.7294 3.68098C74.7294 1.53374 73.2074 0 71.2288 0C69.2503 0 67.7283 1.68712 67.7283 3.68098C67.7283 5.82822 69.2503 7.36196 71.2288 7.36196Z" fill="#BC1F4B"/>
<path d="M105.778 36.9633V37.5768C105.626 38.8038 104.865 39.724 103.799 39.724C102.734 39.724 102.125 38.9571 102.125 37.7301V22.8528C102.125 15.4909 97.7113 10.8896 90.8624 10.8896C87.8184 10.8896 85.3832 11.8099 83.4047 13.497C81.4261 15.1841 80.5129 17.178 80.5129 19.3252C80.5129 21.6258 82.0349 23.313 84.1657 23.313C86.2964 23.313 87.9706 21.7792 87.9706 19.632C87.9706 17.4847 86.4486 15.951 84.3179 15.951C83.8613 15.951 83.5569 16.1044 83.2525 16.1044C83.5569 15.6442 84.1657 15.0308 84.9267 14.2639C86.2964 13.1903 87.9706 12.5768 89.9492 12.5768C94.6674 12.5768 96.7981 14.4173 96.7981 18.2516C96.7981 23.6197 92.2322 25.0001 87.6662 26.5338C87.0574 26.6872 86.6008 26.8406 85.992 26.9939C81.7305 28.3743 79.4475 31.4418 79.4475 35.2761C79.4475 39.8774 82.9481 43.0982 87.8184 43.0982C90.1014 43.0982 92.08 42.4847 93.7542 41.2577C94.8195 40.4909 95.7327 39.724 96.4937 38.8038C97.4069 42.3314 99.6899 43.0982 101.668 43.0982C105.017 43.0982 106.995 40.3375 107.148 37.7301V36.9633H105.778ZM85.3832 34.816C85.3832 30.3682 88.275 28.5277 91.319 27.1473C92.6888 26.3804 94.5152 25.3068 95.8849 23.9265V34.6627C95.8849 37.5768 93.4498 39.8774 90.2536 39.8774C87.3618 40.0308 85.3832 38.0369 85.3832 34.816Z" fill="white"/>
<path d="M62.4015 72.0858C61.9449 73.4662 62.0971 73.9263 62.0971 74.3864C62.0971 74.6932 62.2493 74.8466 62.2493 74.9999C62.2493 75.3067 59.9663 74.3864 59.5098 72.8527C57.2268 73.1594 51.8998 72.0858 50.9866 69.0183C49.7691 65.0306 57.0746 59.8159 66.5109 56.7484C67.5763 54.7545 68.7939 52.4539 70.468 49.6932C71.99 46.9324 73.2076 44.7852 73.2076 43.7116C73.2076 43.2515 73.0554 43.0981 72.9032 43.0981C72.751 43.0981 73.0554 42.9447 73.2076 42.9447C73.3598 42.9447 73.8164 43.0981 74.1208 43.2515C75.1862 44.0183 76.0994 44.9386 76.0994 45.3987C76.0994 45.7055 74.8818 47.8527 73.0554 50.9202L70.3158 55.5214C73.6642 54.7545 77.0126 54.2944 80.5131 53.9877C81.5785 51.8404 82.1873 49.5398 82.0351 47.3926C81.5785 41.8711 75.4906 41.1042 71.6856 41.5643C63.9235 42.3312 57.0746 48.7729 57.379 51.0735C57.379 51.5337 57.9878 52.1472 60.7273 52.4539C60.8795 52.4539 61.0317 52.6073 60.7273 52.7607C59.0532 52.914 57.9878 52.7607 57.2268 52.6073C56.618 52.4539 55.4004 51.8404 55.2482 50.4601C54.7916 46.6257 61.7927 40.4907 70.9246 39.7239C76.556 39.2637 83.4049 42.0245 84.3181 49.3864C84.4703 50.9202 84.3181 52.4539 83.7093 53.9877C85.2313 53.9877 86.6011 53.9877 87.3621 54.141C87.8187 54.2944 87.9709 54.2944 87.2099 54.2944C85.9923 54.2944 84.7747 54.2944 83.5571 54.4478C80.8175 62.1165 71.0768 69.6318 62.4015 72.0858ZM60.1185 70.092C60.8795 67.9447 62.2493 65.3374 63.1625 63.6502C63.4669 62.8834 64.2279 61.3496 65.5977 58.8956C57.9878 61.9631 51.5954 67.7913 53.2696 70.2453C54.0306 71.3189 55.857 71.1656 56.4658 71.0122C57.8356 70.7055 58.5966 70.5521 60.1185 70.092ZM69.5548 57.3619C67.4241 61.0429 65.4455 64.7239 63.7713 68.7116C70.6202 65.6441 77.1648 60.5828 80.3609 54.9079C76.7082 55.368 73.3598 56.1349 69.5548 57.3619Z" fill="#BC1F4B"/>
<path d="M93.9067 46.7792C95.4287 46.4724 97.4073 48.0062 97.5595 49.2332C97.7117 50.4602 92.2325 55.8283 87.6665 56.5951C86.9056 58.1289 86.7534 59.3559 86.7534 59.9694C86.7534 60.4295 87.0578 60.4295 87.5144 60.4295C88.1231 60.2761 88.8841 59.9694 89.1885 59.6626C91.6237 57.9755 95.4287 55.0614 98.6249 51.227C98.7771 51.0737 99.0814 51.227 99.0814 51.3804C96.1897 55.6749 90.7105 61.5031 88.2753 61.9632C87.0578 62.1166 84.3182 60.4295 84.166 59.2025C84.0138 58.2822 84.3182 57.0553 84.927 55.8283C85.9924 53.681 87.8188 51.227 89.6451 49.5399C91.1671 48.0062 92.6891 46.9326 93.9067 46.7792ZM88.2753 55.6749C90.1017 54.908 92.2325 52.9142 93.7545 51.3804C95.2765 49.8467 95.8853 48.0062 95.7331 47.8528C93.7545 48.3129 90.2539 52.3007 88.2753 55.6749Z" fill="#BC1F4B"/>
<path d="M101.06 52.6072C99.6901 55.0611 99.0813 56.9016 99.0813 57.6685C99.0813 58.1286 99.3857 58.282 99.8423 58.282C100.451 58.1286 101.364 57.6685 101.669 57.5151C104.104 55.828 107.604 52.7605 110.344 49.3863C110.344 49.2329 110.801 49.3863 110.648 49.5397C108.061 53.6808 102.734 59.509 100.299 59.8157C99.3857 59.9691 96.4939 58.4354 96.3417 57.2084C96.0373 54.7544 98.4725 50.6133 101.364 47.8526C103.038 46.1654 104.56 45.2452 105.93 44.7851C106.082 44.7851 106.082 44.7851 106.235 44.7851C107.604 44.6317 109.279 45.3986 109.431 46.6256C109.583 47.5458 107.757 49.5397 106.996 49.8464C106.996 49.8464 106.843 49.8464 106.996 49.693C107.452 48.9262 108.365 46.6256 108.213 46.0121C108.213 45.8587 108.061 45.7053 107.909 45.8587C105.93 46.1654 102.886 49.3863 101.06 52.6072Z" fill="#BC1F4B"/>
<path d="M114.758 44.9387C115.367 44.1718 116.736 42.9448 117.802 42.7915C119.932 42.4847 121.607 43.8651 122.063 45.5522C123.89 45.3988 125.564 44.9387 125.868 44.9387C126.173 44.7853 126.477 44.9387 125.868 45.3988C125.412 45.5522 123.89 46.1657 122.063 46.4724C122.215 49.2332 117.497 57.0553 113.236 57.6688C110.801 58.1289 108.518 57.2087 108.213 55.0614C107.757 51.8406 111.714 46.3191 114.758 44.9387ZM111.409 56.7485C113.54 56.4418 118.106 50.7669 119.476 46.7792C118.41 46.9326 117.345 46.7792 116.584 46.4724C113.084 48.3129 110.344 54.1412 110.648 55.9817C110.648 56.5952 110.801 56.9019 111.409 56.7485ZM118.563 43.5583C117.802 43.8651 117.345 44.4786 117.345 44.9387C117.345 45.5522 118.258 45.8589 119.78 45.7056C119.932 45.2455 119.932 44.9387 119.78 44.4786C119.628 43.7117 119.324 43.2516 118.563 43.5583Z" fill="#BC1F4B"/>
<path d="M123.89 53.8343C123.585 54.7545 123.433 55.368 123.585 55.5214C123.737 55.6748 123.585 55.8282 123.281 55.8282C122.976 55.8282 120.846 54.6012 120.998 53.8343C121.15 53.3742 121.302 52.7607 121.607 51.8404L122.672 49.6932C123.433 48.0061 124.803 45.092 125.412 44.0183C125.868 42.9447 126.02 41.8711 125.564 41.7177C125.564 41.7177 126.173 41.5643 126.781 41.8711C127.999 42.4846 128.455 43.2515 128.608 43.7116C128.608 44.0183 127.694 45.7055 126.781 47.5459C127.238 46.7791 127.847 45.8588 128.455 45.092C129.673 43.5582 132.26 40.4907 133.326 40.0306C133.782 39.8772 134.848 41.1042 135 42.3312C135 42.638 135 43.7116 134.696 44.0183C134.696 43.7116 134.543 43.5582 134.391 43.2515C134.087 42.9447 133.63 42.7913 132.869 42.9447C131.347 43.4048 129.977 44.1717 128.303 46.1656C126.173 48.9263 124.651 51.6871 123.89 53.8343Z" fill="#BC1F4B"/>
<path d="M68.4892 38.3437C70.3156 38.0369 72.4463 37.8835 74.2727 38.1903V11.5032H64.8364V13.0369H68.4892V38.3437Z" fill="white"/>
</g>
<defs>
<clipPath id="clip0_4_701">
<rect width="135" height="75" fill="white"/>
</clipPath>
</defs>
</svg>
