<?xml version="1.0" encoding="utf-8"?><svg viewBox="0 0 64 64" xmlns="http://www.w3.org/2000/svg" xmlns:xlink="http://www.w3.org/1999/xlink"><style>:root>svg{display:none}:root>svg:target{display:block}</style><svg viewBox="0 0 40 40" id="adv-1" xmlns="http://www.w3.org/2000/svg"><path d="M12.515 8.724l7.486-7.652 7.486 7.652L20 16.376l-7.486-7.652zM23.546 20l7.485-7.651L38.517 20l-7.486 7.652L23.546 20zM1.484 20.001l7.485-7.652 7.486 7.652-7.486 7.652-7.485-7.652zM12.515 31.276L20 23.624l7.486 7.652L20 38.928l-7.485-7.652z"/></svg><svg viewBox="0 0 42 42" id="adv-2" xmlns="http://www.w3.org/2000/svg"><path d="M16.036 42a2.48 2.48 0 01-.64-.082c-1.158-.31-1.87-1.39-2.559-2.436a5.677 5.677 0 00-1.493-1.755 5.735 5.735 0 00-2.305-.43c-1.238-.076-2.516-.157-3.347-.987-.832-.83-.911-2.11-.987-3.347a5.744 5.744 0 00-.432-2.303 5.664 5.664 0 00-1.755-1.494c-1.045-.689-2.126-1.401-2.435-2.56-.3-1.111.267-2.243.813-3.339A5.82 5.82 0 001.689 21a5.824 5.824 0 00-.793-2.265c-.546-1.095-1.11-2.228-.813-3.34.31-1.158 1.39-1.87 2.435-2.559a5.663 5.663 0 001.755-1.493c.301-.73.448-1.516.431-2.306.077-1.236.156-2.515.987-3.347.832-.832 2.11-.91 3.347-.987a5.743 5.743 0 002.303-.431 5.677 5.677 0 001.496-1.752c.69-1.046 1.401-2.126 2.56-2.436 1.107-.294 2.243.267 3.34.813a5.82 5.82 0 002.264.79 5.82 5.82 0 002.264-.793C24.36.348 25.497-.213 26.605.08c1.158.31 1.87 1.39 2.559 2.436a5.676 5.676 0 001.496 1.755c.73.3 1.515.447 2.305.43 1.237.077 2.516.156 3.347.987.832.832.908 2.11.984 3.348-.016.789.131 1.573.432 2.303a5.665 5.665 0 001.755 1.494c1.045.689 2.126 1.4 2.435 2.56.297 1.11-.267 2.243-.812 3.338A5.819 5.819 0 0040.312 21c.104.802.375 1.573.794 2.265.545 1.095 1.109 2.228.812 3.339-.31 1.159-1.39 1.87-2.435 2.56a5.663 5.663 0 00-1.755 1.496c-.3.73-.447 1.515-.431 2.305-.077 1.237-.155 2.515-.987 3.347-.832.833-2.11.908-3.347.985a5.746 5.746 0 00-2.305.43 5.675 5.675 0 00-1.494 1.756c-.689 1.045-1.401 2.126-2.56 2.435-1.107.296-2.243-.267-3.34-.812a5.82 5.82 0 00-2.263-.794 5.819 5.819 0 00-2.265.794 6.435 6.435 0 01-2.7.894zm0-40.8a1.28 1.28 0 00-.331.04c-.72.192-1.302 1.08-1.869 1.937a6.406 6.406 0 01-1.893 2.133 6.501 6.501 0 01-2.832.59c-1.06.066-2.062.128-2.573.638-.511.511-.573 1.513-.638 2.574a6.502 6.502 0 01-.59 2.832 6.41 6.41 0 01-2.129 1.893c-.858.566-1.744 1.15-1.936 1.868-.18.673.261 1.56.728 2.495a6.6 6.6 0 01.916 2.8 6.6 6.6 0 01-.92 2.8c-.467.937-.906 1.82-.727 2.494.192.72 1.08 1.302 1.936 1.868a6.413 6.413 0 012.134 1.894c.407.888.609 1.856.59 2.832.066 1.061.128 2.063.638 2.574.51.51 1.513.572 2.573.637a6.494 6.494 0 012.832.59c.784.56 1.43 1.29 1.894 2.134.566.857 1.15 1.744 1.867 1.936.673.18 1.56-.26 2.495-.727a6.595 6.595 0 012.8-.92c.99.092 1.947.406 2.799.92.937.467 1.823.907 2.495.727.72-.192 1.302-1.08 1.868-1.936a6.407 6.407 0 011.893-2.134 6.504 6.504 0 012.832-.59c1.061-.066 2.063-.127 2.574-.638.51-.51.572-1.512.637-2.573a6.5 6.5 0 01.59-2.832 6.409 6.409 0 012.134-1.894c.858-.566 1.744-1.15 1.936-1.868.18-.672-.261-1.56-.727-2.494a6.6 6.6 0 01-.92-2.8 6.6 6.6 0 01.92-2.8c.466-.938.906-1.822.727-2.495-.192-.72-1.08-1.302-1.936-1.867a6.413 6.413 0 01-2.134-1.895 6.503 6.503 0 01-.59-2.832c-.066-1.06-.127-2.062-.638-2.573-.51-.511-1.512-.573-2.573-.638a6.493 6.493 0 01-2.832-.59 6.412 6.412 0 01-1.894-2.13c-.565-.858-1.15-1.745-1.867-1.937-.672-.18-1.557.26-2.495.728a6.595 6.595 0 01-2.8.916 6.596 6.596 0 01-2.799-.92 5.61 5.61 0 00-2.163-.767h-.002z"/><path d="M24.635 26.946a2.311 2.311 0 01-1.406-4.149 2.312 2.312 0 111.406 4.149zm0-3.822a1.51 1.51 0 10.616.13 1.504 1.504 0 00-.618-.13h.002zM17.368 19.678a2.31 2.31 0 01-2.306-2.132 2.312 2.312 0 112.306 2.132zm0-3.822a1.51 1.51 0 10.615.13 1.51 1.51 0 00-.617-.13h.002zM16.085 26.285a.363.363 0 01-.207-.064.388.388 0 01-.052-.584l9.832-9.815a.365.365 0 01.523.006.384.384 0 01-.006.536l-9.833 9.814a.365.365 0 01-.257.107z"/></svg><svg viewBox="0 0 36 40" id="adv-3" xmlns="http://www.w3.org/2000/svg"><path d="M34.18 5.476a.426.426 0 01.315.403v17.259c0 2.028-.838 4.166-2.597 6.361-1.345 1.678-3.225 3.386-5.605 5.07-4.004 2.835-7.954 4.576-8.104 4.642a.47.47 0 01-.378 0c-.15-.066-4.1-1.807-8.104-4.641-2.38-1.685-4.26-3.393-5.604-5.071-1.76-2.195-2.598-4.333-2.598-6.361V5.878c0-.174.118-.344.315-.402L17.867.77a.474.474 0 01.266 0L34.18 5.476zM18.49 39.898c.168-.074 4.171-1.839 8.236-4.716l-8.236 4.716z"/><path fill-rule="evenodd" clip-rule="evenodd" d="M24.247 15.589L15.412 23.6l-4.174-3.785 1.222-1.347 2.952 2.678 7.614-6.904 1.22 1.347z"/></svg><svg viewBox="0 0 35 40" id="adv-4" xmlns="http://www.w3.org/2000/svg"><path fill-rule="evenodd" clip-rule="evenodd" d="M26.33 7.538c1.342-.166 2.263 1.31 1.547 2.441-.578.921-1.013 2.122-.652 3.396l.005.018.004.017.01.044c1.93 1.613 3.413 3.638 4.254 5.934h.752c1.242 0 2.25 1.01 2.24 2.243v4.013c0 1.235-1.002 2.248-2.249 2.248h-.677c-.776 2.227-2.152 4.217-3.953 5.822a.834.834 0 01-.055.048c-.067.065-.132.12-.182.163-1.468 1.331-1.6 2.879-1.607 3.236v1.323c0 .833-.675 1.508-1.508 1.508h-5.371a1.507 1.507 0 01-1.508-1.508v-.581a17.93 17.93 0 01-3.005-.043v.633c0 .832-.675 1.507-1.508 1.507H7.496c-.804 0-1.44-.637-1.497-1.402l-.002-.023v-.472c-.041-.869-.315-2.83-1.845-4.405l-.001-.001c-1.223-1.267-2.115-2.801-2.713-4.1a12.59 12.59 0 01-1.082-2.915 12.65 12.65 0 01.822-8.251l.325-.711.62.475a11.686 11.686 0 007.124 2.414c5.531 0 10.162-3.829 11.4-8.97a4.444 4.444 0 011.4-2.302l.003-.002c.96-.829 2.329-1.554 4.28-1.797zm1.208 26.237c-.004.003-.004.003 0 0zm-1.055-25c.29-.036.498.289.34.538l-.002.003c-.665 1.062-1.288 2.631-.8 4.38.005.027.01.047.012.064l.003.023v.295l.231.188c1.979 1.598 3.444 3.64 4.195 5.939l.14.43h1.648c.558 0 .998.453.993.987v4.022c0 .55-.447 1.002-1.002 1.002h-1.588l-.135.44c-.67 2.17-1.974 4.128-3.738 5.7a.827.827 0 00-.082.071c-.04.04-.08.075-.141.128l-.007.005-.006.005c-1.835 1.66-2.013 3.617-2.024 4.147v1.342a.26.26 0 01-.26.261h-5.372a.26.26 0 01-.261-.26v-1.959l-.691.076a16.51 16.51 0 01-1.802.097c-.778 0-1.55-.056-2.302-.154l-.704-.092v2.04a.26.26 0 01-.26.26H7.495a.266.266 0 01-.253-.231v-.462c-.045-.99-.35-3.327-2.196-5.23-1.097-1.136-1.92-2.542-2.483-3.767l-.007-.013-.006-.014a11.348 11.348 0 01-.957-2.533v-.006l-.018-.072a11.407 11.407 0 01.441-6.774 12.922 12.922 0 007.23 2.204c6.121 0 11.241-4.236 12.612-9.923a3.198 3.198 0 011.007-1.655c.775-.67 1.915-1.29 3.617-1.502zm.307 24.003c.004-.003.004-.003 0 0zM25.54 18.26a.71.71 0 00-.708.707.71.71 0 00.707.708.71.71 0 00.707-.708.71.71 0 00-.707-.707zm-1.954.707c0-1.076.877-1.953 1.953-1.953 1.077 0 1.954.877 1.954 1.953a1.956 1.956 0 01-1.954 1.954 1.956 1.956 0 01-1.953-1.954z"/><path fill-rule="evenodd" clip-rule="evenodd" d="M8.961 15.048a6.9 6.9 0 100-13.802 6.9 6.9 0 000 13.802zm0 1.246A8.147 8.147 0 108.961 0a8.147 8.147 0 000 16.294z"/><path fill-rule="evenodd" clip-rule="evenodd" d="M8.961 9.616a1.47 1.47 0 100-2.938 1.47 1.47 0 000 2.938zm0 1.247a2.716 2.716 0 100-5.432 2.716 2.716 0 000 5.432z"/></svg><svg viewBox="0 0 40 34" id="adv-5" xmlns="http://www.w3.org/2000/svg"><path fill-rule="evenodd" clip-rule="evenodd" d="M27.768 24.82l-.638.273a3.482 3.482 0 00-2.06 2.602l-.084.488.055.495a3.476 3.476 0 006.921-.155l.033-.499-.106-.483a3.477 3.477 0 00-3.394-2.726h-.025l-.702.005zm5.555 3.793a4.839 4.839 0 01-9.638.215h-8.66a4.84 4.84 0 01-9.62 0H0V.87h27.957v6.452h5.591L40 17.968v10.645h-6.677zm4.67-11.327H28.46v-8.6h4.32l5.212 8.6zM6.706 28.183l.054.495a3.476 3.476 0 006.908 0l.054-.495-.083-.488a3.476 3.476 0 00-6.85 0l-.083.488zm8.276-.719h8.743a4.846 4.846 0 012.867-3.625V2.235H1.363v25.23h4.084a4.84 4.84 0 019.537 0zM28.46 18.65h10.176v8.6h-5.415a4.84 4.84 0 00-4.692-3.798h-.069V18.65z"/></svg><svg viewBox="0 0 40 38" id="adv-6" xmlns="http://www.w3.org/2000/svg"><path fill-rule="evenodd" clip-rule="evenodd" d="M25.433 1.477H21.38v10.176h4.054V1.477zM21.38.013H6.552a6.552 6.552 0 100 13.104h.992v13.145l-2.2 2.2-.214.214V35.834l.215.214 1.724 1.724.214.215H19.27l.214-.215 1.724-1.724.215-.214v-5.45l-.234-.217-3.904-3.625V19.02H20.386v-5.904h6.51v-2.069H32.414V7.6H40V6.136h-7.586V2.772H26.897V.013H21.379zm-5.433 27.284H8.58l-1.985 1.985v5.946l1.295 1.295h10.774l1.295-1.295v-4.206l-4.012-3.725zM6.552 11.653h13.364V1.477H6.552a5.088 5.088 0 100 10.176zm12.372 1.464H9.008v12.716h6.812v-8.275h3.104v-4.441zM30.95 4.236h-3.28v5.349h3.28v-5.35z"/></svg><svg viewBox="0 0 18 18" id="chevron-left" xmlns="http://www.w3.org/2000/svg"><path fill-rule="evenodd" clip-rule="evenodd" d="M11.78 3.97a.75.75 0 010 1.06L7.81 9l3.97 3.97a.75.75 0 11-1.06 1.06l-4.5-4.5a.75.75 0 010-1.06l4.5-4.5a.75.75 0 011.06 0z"/></svg><svg viewBox="0 0 18 18" id="chevron-right" xmlns="http://www.w3.org/2000/svg"><path fill-rule="evenodd" clip-rule="evenodd" d="M6.22 3.97a.75.75 0 000 1.06L10.19 9l-3.97 3.97a.75.75 0 101.06 1.06l4.5-4.5a.75.75 0 000-1.06l-4.5-4.5a.75.75 0 00-1.06 0z"/></svg><svg viewBox="0 0 16 16" id="chevron-up" xmlns="http://www.w3.org/2000/svg"><path d="M2.126 11H3.31c.08 0 .156-.024.204-.065L8 7.111l4.486 3.824c.047.04.123.065.203.065h1.184c.103 0 .163-.072.103-.124L8.41 6.129c-.202-.172-.616-.172-.817 0l-5.567 4.747c-.062.052-.002.124.1.124z"/></svg><svg viewBox="0 0 39 30" id="delivery" xmlns="http://www.w3.org/2000/svg"><path d="M.75.75h24.5v24.5H.75z"/><path d="M25 6h6.5L38 16M25 26h13V16m0 0H26"/><circle cx="9.5" cy="25.5" r="3.75"/><circle cx="26.5" cy="25.5" r="3.75"/></svg><svg viewBox="0 0 10 18" id="facebook" xmlns="http://www.w3.org/2000/svg"><path d="M9.334.004L7.086 0C4.56 0 2.927 1.66 2.927 4.23v1.95H.667a.352.352 0 00-.355.35v2.826c0 .194.159.35.354.35h2.261v7.131c0 .194.158.35.354.35h2.95a.352.352 0 00.353-.35v-7.13h2.643a.352.352 0 00.354-.35l.001-2.826a.35.35 0 00-.354-.35H6.584V4.526c0-.795.191-1.198 1.235-1.198h1.515a.352.352 0 00.354-.351V.354a.352.352 0 00-.354-.35z"/></svg><svg viewBox="0 0 24 24" id="info" xmlns="http://www.w3.org/2000/svg"><path d="M13.145 8.72c.16.18.22.46.16.7L11.825 17c.36-.12.78.02.96.36.22.38.08.88-.3 1.08l-.5.28c-.2.1-.4.16-.62.16-.26 0-.52-.08-.74-.26-.4-.3-.6-.8-.5-1.3l1.42-7.34h-.34c-.44 0-.8-.36-.8-.8 0-.44.36-.8.8-.8h1.32c.24.02.46.16.62.34zm-.36-3.44a.939.939 0 100 1.88.939.939 0 100-1.88z"/></svg><svg viewBox="0 0 16 16" id="instagram" xmlns="http://www.w3.org/2000/svg"><path d="M2.193.187h11.614c1.103 0 2.005.816 2.005 2.005v11.614c0 1.189-.902 2.006-2.005 2.006H2.193c-1.103 0-2.006-.817-2.006-2.006V2.192c0-1.189.903-2.005 2.006-2.005zm9.377 1.736a.705.705 0 00-.703.703V4.31c0 .387.316.703.703.703h1.766a.706.706 0 00.703-.703V2.626a.705.705 0 00-.703-.703H11.57zm2.477 4.871H12.67c.13.425.201.875.201 1.34 0 2.6-2.175 4.706-4.857 4.706-2.682 0-4.857-2.106-4.857-4.705 0-.466.07-.916.2-1.34H1.925v6.6c0 .341.28.62.621.62h10.88c.342 0 .622-.279.622-.62v-6.6zm-6.032-1.87c-1.733 0-3.138 1.362-3.138 3.041 0 1.68 1.405 3.04 3.138 3.04 1.733 0 3.138-1.36 3.138-3.04s-1.405-3.04-3.138-3.04z"/></svg><svg viewBox="0 0 31 33" id="loader" xmlns="http://www.w3.org/2000/svg"><path d="M15 13l14.5-5.5M15 13L1 7.5M15 13v18l14.5-6V7.5m0 0L15 1 1 7.5m0 0V25l14 6.5"/></svg><svg viewBox="0 0 24 24" id="menu-icon" xmlns="http://www.w3.org/2000/svg"><path fill-rule="evenodd" clip-rule="evenodd" d="M2 12a1 1 0 011-1h18a1 1 0 110 2H3a1 1 0 01-1-1zM2 6a1 1 0 011-1h18a1 1 0 110 2H3a1 1 0 01-1-1zM2 18a1 1 0 011-1h18a1 1 0 110 2H3a1 1 0 01-1-1z"/></svg><svg viewBox="0 0 18 18" id="phone-icon" xmlns="http://www.w3.org/2000/svg"><path d="M17.775.225c-.3-.3-.75-.3-1.05 0L12.75 4.2V1.5c0-.45-.3-.75-.75-.75s-.75.3-.75.75V6c0 .075 0 .225.075.3.075.15.225.3.375.375.075.075.225.075.3.075h4.5c.45 0 .75-.3.75-.75s-.3-.75-.75-.75h-2.7l3.975-3.975c.3-.3.3-.75 0-1.05z"/><path d="M15 17.175h-.225c-2.4-.3-4.8-1.125-6.825-2.4a15.77 15.77 0 01-4.725-4.725C1.875 8.025 1.05 5.625.825 3.225c0-.6.15-1.2.525-1.65.375-.45.9-.75 1.5-.825h2.475c1.125 0 2.1.825 2.25 1.95.075.675.225 1.35.45 1.95.3.825.075 1.725-.525 2.4l-.525.525c.9 1.35 2.025 2.55 3.45 3.45l.525-.525c.6-.6 1.575-.825 2.4-.525.6.225 1.275.375 1.95.45 1.125.15 1.95 1.125 1.95 2.25v2.25c0 .6-.225 1.2-.675 1.575-.45.375-.975.675-1.575.675zM5.325 2.25h-2.25c-.225 0-.45.15-.6.3-.075.15-.15.3-.15.525A14.107 14.107 0 004.5 9.225C5.625 10.95 7.05 12.45 8.775 13.5a14.108 14.108 0 006.15 2.175c.3 0 .45-.075.6-.225a.68.68 0 00.225-.525v-2.25c0-.375-.3-.675-.675-.75-.75-.075-1.5-.3-2.25-.6-.3-.075-.6-.075-.825.15l-.975.975c-.225.225-.6.3-.9.15a12.307 12.307 0 01-4.8-4.8c-.075-.3 0-.675.225-.9l.975-.975c.15-.15.225-.525.15-.75-.3-.75-.45-1.5-.6-2.25 0-.375-.375-.675-.75-.675z"/></svg><svg viewBox="0 0 64 64" id="saw" xmlns="http://www.w3.org/2000/svg"><g data-name="Layer 61"><path d="M32 22.89A9.13 9.13 0 0022.88 32c.49 12.07 17.75 12.06 18.24 0A9.13 9.13 0 0032 22.89zm0 16.22A7.12 7.12 0 0124.88 32c.33-9.42 13.9-9.42 14.24 0A7.13 7.13 0 0132 39.11z"/><path d="M60.94 31.2a1.18 1.18 0 000-.67c-1.71-4.22-5.39-8-9.13-7.45a21.21 21.21 0 00-1.35-2.53 6.35 6.35 0 016.44.38 1 1 0 00.92 0 1 1 0 00.24-1.58c-3.22-3.23-8.1-5.3-11.32-3.29a23.9 23.9 0 00-1.92-1.57 6.26 6.26 0 016-2.08 1.07 1.07 0 00.94-.35 1 1 0 00-.37-1.56c-4.19-1.77-9.48-1.85-11.72 1.19a19.56 19.56 0 00-2.67-.83 6.23 6.23 0 014.72-4.25 1.05 1.05 0 00.73-.69 1 1 0 00-.94-1.29c-4.56 0-9.47 2-10.33 5.69a20.48 20.48 0 00-2.46.24 6.23 6.23 0 012.78-5.73 1 1 0 00.42-.91 1 1 0 00-1.35-.84c-4.23 1.7-8 5.37-7.45 9.12a22.58 22.58 0 00-2.53 1.34 6.34 6.34 0 01.37-6.43A1 1 0 0020.81 6a1 1 0 00-1.47 0c-2.77 2.77-5.4 7.91-3.28 11.33a20.7 20.7 0 00-1.57 1.91 6.24 6.24 0 01-2.08-6 1.06 1.06 0 00-.35-.95 1 1 0 00-1.56.37c-1.77 4.18-1.86 9.46 1.19 11.71a21.54 21.54 0 00-.84 2.63 6.25 6.25 0 01-4.24-4.72 1.07 1.07 0 00-.69-.73 1 1 0 00-1.29.94c0 4.56 2 9.46 5.68 10.32 0 .83.12 1.65.24 2.47a6.25 6.25 0 01-5.72-2.78 1 1 0 00-.91-.42 1 1 0 00-.85 1.35c1.74 4.18 5.2 8 9.12 7.45a21.83 21.83 0 001.34 2.53 6.38 6.38 0 01-6.43-.37 1 1 0 00-.91 0 1 1 0 00-.25 1.58c3.15 3 7.52 5.37 11.31 3.29a20.1 20.1 0 001.92 1.58 6.24 6.24 0 01-6 2.06 1.06 1.06 0 00-.94.35 1 1 0 00.36 1.56c3.64 1.54 9.18 2.14 11.72-1.18a21 21 0 002.74.83 6.37 6.37 0 01-4.81 4.28 1 1 0 00.3 1.94c4.53 0 9.41-2 10.31-5.68a20.81 20.81 0 002.48-.24 6.26 6.26 0 01-2.79 5.72A1 1 0 0033.1 61c4.33-1.39 8.4-5.42 7.82-9.19a23.59 23.59 0 002.53-1.34 6.24 6.24 0 01-.34 6.33 1 1 0 00.89 1.54 1 1 0 00.7-.29c3.22-3.21 5.28-8.08 3.29-11.3a20.22 20.22 0 001.59-1.92 6.25 6.25 0 012.06 6 1 1 0 001 1.19 1 1 0 00.92-.61c1.78-4.18 1.88-9.47-1.18-11.71a21.06 21.06 0 00.77-2.7 6.27 6.27 0 014.25 4.73 1.05 1.05 0 001 .79 1.05 1.05 0 001-1c0-4.56-2-9.47-5.69-10.33a20.45 20.45 0 00-.24-2.47 6.22 6.22 0 015.73 2.79 1.1 1.1 0 00.83.44 1 1 0 00.91-.75zm-8.82-4.31a1 1 0 00-.78 1.18 26.88 26.88 0 01.42 4.09.59.59 0 00.13.34 1 1 0 00.79.48c1.73.09 3 1.59 3.73 3.48a7.81 7.81 0 00-3.85-1.69 1 1 0 00-1 .47 31.27 31.27 0 01-1.34 4.41 1 1 0 00.16 1.12c1.72.85 2.42 2.61 2.35 4.85a7.7 7.7 0 00-2.88-3.06 1.06 1.06 0 00-1.38.3A17.85 17.85 0 0145.94 46a1 1 0 00-.3.72 1.12 1.12 0 00.26.67c1.17 1.28 1 3.21.18 5.09a7.8 7.8 0 00-1.51-3.9 1 1 0 00-1.39-.25 19.26 19.26 0 01-3.79 2 1 1 0 00-.57.65.86.86 0 000 .61c.57 1.64-.37 3.34-1.84 4.76a7.76 7.76 0 00.15-4.17 1 1 0 00-1-.82 20.89 20.89 0 01-4.1.42 1 1 0 00-.86.52v.07a.88.88 0 00-.05.15c-.12 1.85-1.51 3.14-3.53 3.94a7.87 7.87 0 001.69-3.84 1 1 0 00-.74-1.12 21.37 21.37 0 01-4.13-1.23 1 1 0 00-1.15.18c-.86 1.69-2.58 2.4-4.82 2.34a7.78 7.78 0 003-2.87 1 1 0 00-.17-1.25 45 45 0 01-3.51-2.84 1 1 0 00-.92.09c-1.36 1.21-3.27 1.12-5.24.27a7.89 7.89 0 003.9-1.51.79.79 0 00.3-.35.91.91 0 00.09-.7 31.63 31.63 0 01-2.15-4.07 1 1 0 00-1.28-.63c-1.63.57-3.33-.36-4.75-1.81 1.15.37 5.35.92 5-1.14a20.54 20.54 0 01-.44-3.98 1 1 0 00-.95-1c-1.73-.08-3-1.59-3.73-3.48a7.81 7.81 0 003.81 1.68 1 1 0 001.22-.83 19 19 0 011.19-4v-.07a1 1 0 00-.45-1.3c-1.57-.75-2.11-2.62-2.07-4.66.56 1.07 3 4.38 4.27 2.78a24.16 24.16 0 012.59-3.2 1 1 0 00.2-.54 1.18 1.18 0 00-.26-.7c-1.17-1.29-1-3.22-.18-5.1a7.73 7.73 0 001.53 3.91 1 1 0 001.39.24 31.62 31.62 0 014.09-2.25.94.94 0 00.28-.88c-.58-1.73.25-3.45 1.8-4.93a7.74 7.74 0 00-.13 4.19 1 1 0 001.18.79c1.44-.4 3-.2 4.42-.53a1 1 0 00.53-.81c.08-1.74 1.59-3 3.48-3.74a7.87 7.87 0 00-1.7 3.85 1 1 0 00.8 1.16 18.48 18.48 0 014.12 1.22 1 1 0 00.67.05 1.08 1.08 0 00.62-.53c.75-1.56 2.62-2.1 4.66-2.07a7.88 7.88 0 00-3.06 2.87 1 1 0 00.16 1.25c1.23.84 2.36 1.87 3.52 2.84a1 1 0 00.91-.09c1.37-1.21 3.27-1.12 5.25-.27a7.89 7.89 0 00-3.92 1.53 1 1 0 00-.24 1.39 18.55 18.55 0 012 3.77 1 1 0 00.45.5 1 1 0 00.68.1c1.7-.59 3.42.27 4.89 1.8a7.8 7.8 0 00-4.17-.05z"/></g></svg><svg viewBox="0 0 24 24" id="search-icon" xmlns="http://www.w3.org/2000/svg"><path fill-rule="evenodd" clip-rule="evenodd" d="M11 4a7 7 0 100 14 7 7 0 000-14zm-9 7a9 9 0 1118 0 9 9 0 01-18 0z"/><path fill-rule="evenodd" clip-rule="evenodd" d="M15.943 15.943a1 1 0 011.414 0l4.35 4.35a1 1 0 01-1.414 1.414l-4.35-4.35a1 1 0 010-1.414z"/></svg><svg viewBox="0 0 19 18" id="star-active" xmlns="http://www.w3.org/2000/svg"><path d="M9.5 1.257l2.121 4.891.117.271.294.028 5.308.506-3.997 3.529-.221.195.064.288 1.16 5.204-4.592-2.71-.254-.15-.254.15-4.591 2.71 1.159-5.204.064-.288-.221-.195-3.997-3.53 5.308-.505.293-.028.118-.27L9.5 1.256z"/></svg><svg viewBox="0 0 19 18" id="star-unactive" xmlns="http://www.w3.org/2000/svg"><path d="M9.5 1.257l2.121 4.891.117.271.294.028 5.308.506-3.997 3.529-.221.195.064.288 1.16 5.204-4.592-2.71-.254-.15-.254.15-4.591 2.71 1.159-5.204.064-.288-.221-.195-3.997-3.53 5.308-.505.293-.028.118-.27L9.5 1.256z"/></svg><svg viewBox="0 0 18 16" id="telegram" xmlns="http://www.w3.org/2000/svg"><path d="M.366 7.68l3.96 1.543L5.86 14.37c.098.33.484.452.74.233l2.208-1.879a.637.637 0 01.803-.023l3.982 3.018c.274.208.662.051.731-.295L17.24.774c.075-.377-.28-.692-.625-.553L.36 6.768c-.4.161-.397.754.005.912zm5.246.721l7.74-4.977c.14-.09.282.107.163.223l-6.388 6.2c-.224.218-.369.51-.41.827l-.218 1.684a.199.199 0 01-.39.03l-.837-3.071a.83.83 0 01.34-.916z"/></svg><svg viewBox="0 0 30 30" id="tinting" xmlns="http://www.w3.org/2000/svg"><path d="M.893.75h8.571c.08 0 .143.064.143.143v.83L.75 17.062V.893C.75.814.814.75.893.75zM20.993 6.204a.143.143 0 01-.015.109l-.415.718-15.34 8.857 8.085-14.004a.143.143 0 01.195-.052l7.423 4.286c.033.019.057.05.067.086zM23.687 9.022L9.683 17.107h17.714l.718-.415-4.428-7.67zm0 0a.143.143 0 01.195.052l4.286 7.423m-4.48-7.475l4.48 7.475m0 0a.143.143 0 01-.052.195l.052-.195zM6.82 24.788c-.037-.832-.69-1.61-1.642-1.61-.84 0-1.685.716-1.642 1.677.038.832.69 1.61 1.642 1.61.841 0 1.686-.716 1.643-1.677zm0 0l-.749.034.75-.034zm-1.522-4.395h23.81c.078 0 .142.064.142.143v8.571a.143.143 0 01-.143.143H5.297A4.434 4.434 0 01.87 24.822a4.434 4.434 0 014.429-4.43z"/></svg></svg>