<svg width="35" height="40" viewBox="0 0 35 40" fill="none" xmlns="http://www.w3.org/2000/svg">
<path fill-rule="evenodd" clip-rule="evenodd" d="M26.3299 7.53808C27.6724 7.372 28.5926 8.8476 27.8765 9.97915C27.2992 10.9003 26.8639 12.1012 27.2249 13.3752L27.2297 13.3925L27.2336 13.4099C27.2365 13.4227 27.2398 13.4377 27.2433 13.4544C29.1748 15.0666 30.6573 17.0922 31.4977 19.3884H32.2497C33.4925 19.3884 34.4994 20.3982 34.4894 21.6308V25.6443C34.4894 26.8788 33.4885 27.8924 32.2413 27.8924H31.5641C30.7879 30.1192 29.4116 32.1093 27.6114 33.7143C27.5898 33.7345 27.5698 33.7509 27.5561 33.7616C27.4889 33.827 27.4243 33.8823 27.374 33.9255C25.9056 35.256 25.7745 36.804 25.7666 37.1605V38.4844C25.7666 39.3169 25.0919 39.9916 24.2594 39.9916H18.8876C18.0551 39.9916 17.3804 39.3169 17.3804 38.4844V37.9026C16.9683 37.9313 16.553 37.9456 16.1343 37.9456C15.54 37.9456 14.9514 37.9149 14.3747 37.8599V38.4928C14.3747 39.3253 13.7 40 12.8675 40H7.4957C6.69179 40 6.05533 39.3631 5.99864 38.5978L5.99693 38.5748V38.1031C5.95551 37.234 5.68189 35.2735 4.15227 33.6982L4.15093 33.6968C2.92831 32.4299 2.0362 30.8958 1.43776 29.5977C0.975238 28.705 0.615713 27.7588 0.377237 26.7759C0.367522 26.7419 0.36089 26.7103 0.356393 26.682C0.13165 25.7372 0.010498 24.7568 0.010498 23.7498C0.010498 21.8629 0.427241 20.074 1.17828 18.4306L1.50308 17.7198L2.12368 18.1947C4.09914 19.7063 6.56882 20.6092 9.24701 20.6092C14.7785 20.6092 19.4085 16.7803 20.6478 11.6394C20.8637 10.7463 21.354 9.94318 22.0477 9.3374L22.0502 9.33526C23.0094 8.5064 24.379 7.78082 26.3299 7.53808ZM27.5381 33.7753C27.5342 33.7782 27.5344 33.7781 27.5381 33.7753V33.7753ZM26.4831 8.77485C26.7735 8.73909 26.9812 9.06401 26.8232 9.31307L26.8215 9.31572C26.1556 10.3777 25.5326 11.9474 26.0206 13.6964C26.0263 13.7228 26.0303 13.743 26.033 13.7602C26.0353 13.7747 26.0358 13.7818 26.0359 13.7829V14.0784L26.2674 14.2655C28.246 15.8645 29.7112 17.9053 30.4618 20.2048L30.602 20.6346H32.2497C32.8077 20.6346 33.2483 21.088 33.2432 21.6221L33.2432 25.6443C33.2432 26.1947 32.796 26.6462 32.2413 26.6462H30.6533L30.5177 27.0854C29.8473 29.2563 28.5436 31.2143 26.7796 32.7864C26.7631 32.7989 26.7312 32.8244 26.6983 32.8572C26.6588 32.8967 26.6176 32.9324 26.5566 32.9847L26.5504 32.99L26.5444 32.9955C24.7087 34.6541 24.5307 36.6124 24.5205 37.1421L24.5204 37.1481V38.4844C24.5204 38.6286 24.4036 38.7453 24.2594 38.7453H18.8876C18.7434 38.7453 18.6266 38.6286 18.6266 38.4844V36.5263L17.9357 36.602C17.344 36.6669 16.7436 36.6993 16.1343 36.6993C15.3561 36.6993 14.5833 36.6426 13.8322 36.5446L13.1285 36.4528V38.4928C13.1285 38.637 13.0117 38.7538 12.8675 38.7538H7.4957C7.37811 38.7538 7.2614 38.6575 7.24316 38.522V38.0745L7.24252 38.0604C7.19751 37.0701 6.89339 34.7328 5.04708 32.8308C3.95041 31.6942 3.12705 30.288 2.5637 29.0633L2.55744 29.0497L2.55054 29.0364C2.13244 28.2318 1.80863 27.3822 1.59352 26.5033L1.59352 26.4965L1.57621 26.4246C1.36838 25.5613 1.25673 24.6672 1.25673 23.7498C1.25673 22.3142 1.52403 20.9406 2.01701 19.6514C4.08268 21.0401 6.57134 21.8554 9.24701 21.8554C15.3683 21.8554 20.4882 17.6185 21.8592 11.9318C22.0137 11.293 22.365 10.7153 22.8662 10.2772C23.6414 9.60775 24.7809 8.9867 26.4831 8.77485ZM26.7903 32.7783C26.7942 32.7754 26.794 32.7754 26.7903 32.7783V32.7783ZM25.5392 18.2602C25.1508 18.2602 24.832 18.579 24.832 18.9674C24.832 19.3558 25.1508 19.6746 25.5392 19.6746C25.9276 19.6746 26.2464 19.3558 26.2464 18.9674C26.2464 18.579 25.9276 18.2602 25.5392 18.2602ZM23.5858 18.9674C23.5858 17.8908 24.4625 17.014 25.5392 17.014C26.6159 17.014 27.4926 17.8908 27.4926 18.9674C27.4926 20.0441 26.6159 20.9209 25.5392 20.9209C24.4625 20.9209 23.5858 20.0441 23.5858 18.9674Z" fill="white"/>
<path fill-rule="evenodd" clip-rule="evenodd" d="M8.96103 15.0476C12.7722 15.0476 15.8617 11.9581 15.8617 8.14694C15.8617 4.33578 12.7722 1.24623 8.96103 1.24623C5.14987 1.24623 2.06032 4.33578 2.06032 8.14694C2.06032 11.9581 5.14987 15.0476 8.96103 15.0476ZM8.96103 16.2939C13.4605 16.2939 17.108 12.6464 17.108 8.14694C17.108 3.64751 13.4605 0 8.96103 0C4.4616 0 0.814087 3.64751 0.814087 8.14694C0.814087 12.6464 4.4616 16.2939 8.96103 16.2939Z" fill="white"/>
<path fill-rule="evenodd" clip-rule="evenodd" d="M8.96101 9.61634C9.77254 9.61634 10.4304 8.95846 10.4304 8.14692C10.4304 7.33538 9.77254 6.6775 8.96101 6.6775C8.14947 6.6775 7.49159 7.33538 7.49159 8.14692C7.49159 8.95846 8.14947 9.61634 8.96101 9.61634ZM8.96101 10.8626C10.4608 10.8626 11.6767 9.64673 11.6767 8.14692C11.6767 6.64711 10.4608 5.43127 8.96101 5.43127C7.4612 5.43127 6.24536 6.64711 6.24536 8.14692C6.24536 9.64673 7.4612 10.8626 8.96101 10.8626Z" fill="white"/>
</svg>
