<svg width="40" height="38" viewBox="0 0 40 38" fill="none" xmlns="http://www.w3.org/2000/svg">
<path fill-rule="evenodd" clip-rule="evenodd" d="M25.4332 1.47687H21.3794V11.6535H25.4332V1.47687ZM21.3794 0.0134583H19.9159H6.55172C2.9333 0.0134583 0 2.94676 0 6.56519C0 10.1836 2.93331 13.1169 6.55173 13.1169H7.54422V26.2622L5.34481 28.4616L5.1305 28.6759V28.979V35.5307V35.8338L5.34481 36.0481L7.06895 37.7722L7.28326 37.9865H7.58635H18.9657H19.2687L19.4831 37.7722L21.2072 36.0481L21.4215 35.8338V35.5307V30.7031V30.384L21.1877 30.1669L17.2835 26.5416V22.4273V19.0211H19.6552H20.387V18.2894V13.1169L21.3794 13.1169L25.4332 13.1169H26.8966V11.6535V11.048H27.6703H30.9504H32.4138V9.58458V7.59964H40V6.13623H32.4138V4.23554V2.77213H30.9504H27.6703H26.8966V1.47687V0.0134583H25.4332H21.3794ZM15.9463 27.297H8.57901L6.59391 29.2821V35.2276L7.88943 36.5231H18.6626L19.9581 35.2276V31.0222L15.9463 27.297ZM6.55173 11.6535H19.9159V1.47687H6.55172C3.74153 1.47687 1.46341 3.75498 1.46341 6.56519C1.46341 9.37538 3.74153 11.6535 6.55173 11.6535ZM18.9235 13.1169H9.00764V25.8335H15.8201V22.4273V18.2894V17.5577H16.5518H18.9235V13.1169ZM30.9504 4.23554H27.6703V9.58458H30.9504V4.23554Z" fill="white"/>
</svg>
