<svg width="40" height="34" viewBox="0 0 40 34" fill="none" xmlns="http://www.w3.org/2000/svg">
<path fill-rule="evenodd" clip-rule="evenodd" d="M27.768 24.8202L27.1296 25.0932C26.0625 25.5496 25.2713 26.5249 25.07 27.6955L24.9861 28.1833L25.0408 28.6781C25.2327 30.4142 26.7068 31.7654 28.4946 31.7654C30.3354 31.7654 31.8429 30.3332 31.962 28.5233L31.9949 28.0241L31.889 27.5413C31.5471 25.9818 30.1554 24.8152 28.4946 24.8152L28.4698 24.8153L27.768 24.8202ZM33.3227 28.6129C33.1567 31.1348 31.0585 33.129 28.4946 33.129C26.004 33.129 23.9528 31.2473 23.6854 28.8279H15.0242C14.7568 31.2473 12.7057 33.129 10.215 33.129C7.72442 33.129 5.67331 31.2473 5.40587 28.8279H0V0.871002H27.9569V7.3226H33.5484L40 17.9677V28.6129H33.3227ZM37.9923 17.2859H28.4604V8.68623H32.7803L37.9923 17.2859ZM6.70655 28.1833L6.76125 28.6781C6.95316 30.4142 8.42724 31.7654 10.215 31.7654C12.0028 31.7654 13.4769 30.4142 13.6688 28.6781L13.7235 28.1833L13.6396 27.6955C13.3583 26.0598 11.9306 24.8152 10.215 24.8152C8.49944 24.8152 7.07179 26.0598 6.79046 27.6955L6.70655 28.1833ZM14.9835 27.4643H23.7261C24.0074 25.8288 25.1096 24.474 26.5933 23.8394V2.23464H1.36363V27.4643H5.44656C5.83853 25.1855 7.8243 23.4516 10.215 23.4516C12.6058 23.4516 14.5916 25.1855 14.9835 27.4643ZM28.4604 18.6496H38.6364V27.2492H33.221C32.7471 25.088 30.8285 23.4676 28.5287 23.4517C28.5173 23.4517 28.506 23.4516 28.4946 23.4516L28.4604 23.4517V18.6496Z" fill="white"/>
</svg>
