<svg width="36" height="40" viewBox="0 0 36 40" fill="none" xmlns="http://www.w3.org/2000/svg">
<path d="M34.1799 5.47616L34.18 5.47619C34.3767 5.53386 34.4951 5.70378 34.4951 5.87891V23.138C34.4951 25.1663 33.6567 27.3039 31.8975 29.499C30.5527 31.177 28.6729 32.8851 26.2929 34.5696C22.2887 37.4037 18.3393 39.1449 18.1892 39.2106L18.1887 39.2108C18.1296 39.2367 18.0653 39.25 18.0001 39.25C17.9352 39.25 17.8708 39.2367 17.8113 39.2107L17.811 39.2105C17.6609 39.1449 13.7115 37.4037 9.70726 34.5696C7.32724 32.885 5.4473 31.177 4.10262 29.499C2.34337 27.3038 1.50488 25.1662 1.50488 23.138V5.87891C1.50488 5.70389 1.62332 5.53386 1.82002 5.47617L1.82004 5.47616L17.8668 0.76913L17.8668 0.769123C17.9538 0.743618 18.0466 0.74364 18.1334 0.769103L18.1335 0.769129L34.1799 5.47616ZM18.4899 39.8977C18.6582 39.824 22.6611 38.059 26.7262 35.1818L18.4899 39.8977Z" stroke="white" stroke-width="1.5"/>
<path fill-rule="evenodd" clip-rule="evenodd" d="M24.2469 15.5887L15.4125 23.6001L11.2382 19.8147L12.4595 18.4678L15.4125 21.1456L23.0255 14.2418L24.2469 15.5887Z" fill="white"/>
</svg>
