<svg width="42" height="42" viewBox="0 0 42 42" fill="none" xmlns="http://www.w3.org/2000/svg">
<path d="M16.0364 42C15.8206 42.0006 15.6055 41.9729 15.3968 41.9178C14.2383 41.6082 13.5261 40.5276 12.8374 39.4824C12.4648 38.8014 11.9566 38.2041 11.344 37.7273C10.6136 37.4265 9.82879 37.2798 9.03896 37.2965C7.80122 37.2209 6.52328 37.1399 5.69172 36.3101C4.86017 35.4803 4.78097 34.1999 4.70477 32.9627C4.72069 32.1736 4.57385 31.3897 4.27339 30.6599C3.79682 30.0468 3.19927 29.5383 2.51788 29.1659C1.47273 28.4771 0.392187 27.7649 0.083202 26.6062C-0.216783 25.495 0.350189 24.3628 0.895562 23.2672C1.31495 22.5748 1.58529 21.8026 1.68932 20.9998C1.58486 20.1979 1.31454 19.4265 0.895562 18.7348C0.350189 17.6398 -0.213783 16.5069 0.083202 15.3957C0.392187 14.2371 1.47333 13.5249 2.51788 12.8361C3.19923 12.4639 3.79677 11.9556 4.27339 11.3427C4.57395 10.6121 4.7206 9.82732 4.70417 9.03747C4.78097 7.80086 4.85956 6.52224 5.69112 5.69004C6.52268 4.85783 7.80122 4.77923 9.03836 4.70303C9.8274 4.71895 10.6113 4.57209 11.341 4.27162C11.9543 3.79606 12.4636 3.19977 12.8374 2.5196C13.5261 1.47439 14.2383 0.393784 15.3968 0.0841808C16.5044 -0.210422 17.6401 0.351183 18.7363 0.896589C19.428 1.31455 20.1991 1.58387 21.0006 1.6874C21.8023 1.58295 22.5734 1.31261 23.2649 0.893589C24.361 0.348183 25.4967 -0.213422 26.6043 0.0811807C27.7628 0.390784 28.475 1.47139 29.1638 2.5166C29.5372 3.19786 30.0465 3.7952 30.6601 4.27162C31.3906 4.57248 32.1753 4.71915 32.9652 4.70243C34.2017 4.77863 35.4808 4.85783 36.3124 5.68944C37.144 6.52104 37.2202 7.79966 37.2964 9.03687C37.2804 9.82596 37.4273 10.6099 37.7277 11.3397C38.2043 11.9528 38.8019 12.4613 39.4832 12.8337C40.5284 13.5225 41.6089 14.2347 41.9179 15.3933C42.2149 16.5045 41.6509 17.6368 41.1056 18.7324C40.6862 19.4247 40.4158 20.197 40.3118 20.9998C40.4163 21.8017 40.6866 22.5731 41.1056 23.2648C41.6509 24.3604 42.2149 25.4926 41.9179 26.6038C41.6089 27.7625 40.5278 28.4747 39.4832 29.1635C38.8016 29.5365 38.2041 30.0459 37.7277 30.6599C37.4272 31.3905 37.2805 32.1752 37.297 32.9651C37.2202 34.2017 37.1416 35.4803 36.31 36.3125C35.4784 37.1447 34.1999 37.2203 32.9628 37.2965C32.1729 37.2803 31.3882 37.4272 30.6577 37.7279C30.0449 38.2046 29.5365 38.8019 29.1638 39.483C28.475 40.5282 27.7628 41.6088 26.6043 41.9184C25.4967 42.2136 24.361 41.6514 23.2649 41.106C22.5734 40.687 21.8023 40.4166 21.0006 40.3122C20.1989 40.4166 19.4277 40.687 18.7363 41.106C17.9143 41.6016 16.9918 41.9071 16.0364 42ZM16.0364 1.19959C15.9245 1.19862 15.813 1.21234 15.7046 1.24039C14.9847 1.43239 14.4027 2.3204 13.8363 3.17661C13.3735 4.02112 12.7263 4.75041 11.9428 5.31023C11.0552 5.7172 10.0873 5.919 9.11095 5.90064C8.05021 5.96604 7.04886 6.02784 6.53768 6.53844C6.02651 7.04905 5.96531 8.05106 5.89991 9.11187C5.91848 10.0882 5.7169 11.0562 5.31014 11.9439C4.75157 12.7268 4.02404 13.374 3.18145 13.8375C2.32349 14.4033 1.43733 14.9877 1.24474 15.7053C1.06475 16.3779 1.50633 17.2654 1.97251 18.1996C2.48519 19.052 2.79858 20.0092 2.88926 20.9998C2.79767 21.9906 2.48324 22.9479 1.96951 23.8C1.50153 24.7372 1.06295 25.6198 1.24174 26.2942C1.43433 27.0142 2.32169 27.5962 3.17845 28.1621C4.0228 28.6253 4.752 29.2727 5.31194 30.0563C5.71889 30.944 5.92067 31.9119 5.90231 32.8883C5.96771 33.9491 6.02951 34.9505 6.54008 35.4617C7.05066 35.9729 8.05261 36.0341 9.11335 36.0995C10.0896 36.0807 11.0576 36.2823 11.9452 36.6893C12.7286 37.2493 13.3758 37.9786 13.8387 38.823C14.4045 39.6804 14.9889 40.5672 15.7064 40.7592C16.379 40.9392 17.2663 40.4988 18.2011 40.032C19.053 39.5182 20.01 39.2037 21.0006 39.1122C21.9911 39.2037 22.9482 39.5182 23.8 40.032C24.7372 40.4988 25.6233 40.9392 26.2947 40.7592C27.0147 40.5672 27.5966 39.6792 28.163 38.823C28.6258 37.9785 29.273 37.2492 30.0565 36.6893C30.9442 36.2824 31.9121 36.0806 32.8884 36.0989C33.9491 36.0335 34.9505 35.9717 35.4616 35.4611C35.9728 34.9505 36.034 33.9485 36.0994 32.8877C36.0808 31.9114 36.2824 30.9434 36.6892 30.0557C37.2491 29.2722 37.9783 28.625 38.8227 28.1621C39.6806 27.5962 40.5668 27.0118 40.7594 26.2942C40.9394 25.6216 40.4978 24.7342 40.0316 23.8C39.5179 22.9479 39.2035 21.9906 39.1119 20.9998C39.2035 20.009 39.5179 19.0517 40.0316 18.1996C40.4978 17.2624 40.9382 16.3779 40.7594 15.7053C40.5668 14.9853 39.6794 14.4033 38.8227 13.8375C37.9783 13.3743 37.2491 12.7269 36.6892 11.9433C36.2822 11.0556 36.0805 10.0876 36.0988 9.11127C36.0334 8.05046 35.9716 7.04905 35.461 6.53784C34.9505 6.02664 33.9485 5.96544 32.8878 5.90004C31.9115 5.91889 30.9435 5.71729 30.0559 5.31023C29.2729 4.75111 28.6257 4.02291 28.1624 3.17961C27.5966 2.3222 27.0123 1.43539 26.2947 1.24339C25.6227 1.06339 24.7378 1.50379 23.8 1.9706C22.9479 2.48336 21.9909 2.79678 21.0006 2.88741C20.01 2.79586 19.053 2.48141 18.2011 1.9676C17.5408 1.56526 16.8044 1.30378 16.0382 1.19959H16.0364Z" fill="white"/>
<path d="M24.6349 26.9459C24.2493 26.9462 23.8698 26.8499 23.5309 26.666C23.192 26.482 22.9045 26.2162 22.6945 25.8927C22.4846 25.5692 22.3588 25.1983 22.3288 24.8137C22.2988 24.4292 22.3654 24.0432 22.5225 23.691C22.6797 23.3388 22.9224 23.0315 23.2286 22.7971C23.5349 22.5627 23.8948 22.4087 24.2758 22.349C24.6567 22.2893 25.0465 22.3259 25.4097 22.4555C25.7729 22.585 26.0979 22.8033 26.3552 23.0906C26.6535 23.423 26.8492 23.8346 26.9185 24.2758C26.9879 24.7171 26.9279 25.1689 26.7459 25.5768C26.5639 25.9846 26.2677 26.331 25.893 26.574C25.5184 26.817 25.0814 26.9462 24.6349 26.9459ZM24.6349 23.1239C24.2891 23.1242 23.954 23.2433 23.6854 23.4611C23.4168 23.6789 23.2311 23.9824 23.1593 24.3207C23.0875 24.6591 23.134 25.0118 23.2909 25.32C23.4479 25.6282 23.7058 25.8732 24.0216 26.014C24.3375 26.1548 24.692 26.1829 25.0261 26.0936C25.3601 26.0044 25.6535 25.8031 25.857 25.5235C26.0605 25.2439 26.162 24.9029 26.1444 24.5575C26.1268 24.212 25.9912 23.8831 25.7603 23.6256C25.6186 23.467 25.4449 23.3403 25.2506 23.2538C25.0563 23.1673 24.8459 23.1231 24.6333 23.1239H24.6349Z" fill="white" stroke="white" stroke-width="0.5"/>
<path d="M17.3676 19.6784C16.982 19.6787 16.6025 19.5825 16.2636 19.3985C15.9247 19.2145 15.6371 18.9487 15.4272 18.6252C15.2172 18.3017 15.0915 17.9308 15.0615 17.5462C15.0314 17.1617 15.098 16.7758 15.2552 16.4235C15.4123 16.0713 15.6551 15.764 15.9613 15.5296C16.2675 15.2952 16.6275 15.1412 17.0084 15.0815C17.3894 15.0218 17.7792 15.0584 18.1424 15.188C18.5056 15.3175 18.8306 15.5358 19.0879 15.8231C19.3862 16.1555 19.5818 16.5671 19.6512 17.0084C19.7205 17.4496 19.6606 17.9015 19.4786 18.3093C19.2966 18.7172 19.0003 19.0635 18.6257 19.3065C18.2511 19.5495 17.8141 19.6787 17.3676 19.6784ZM17.3676 15.8564C17.0218 15.8568 16.6867 15.9759 16.4182 16.1938C16.1497 16.4117 15.964 16.7152 15.8923 17.0535C15.8206 17.3919 15.8671 17.7446 16.0241 18.0527C16.1811 18.3609 16.4391 18.6058 16.7549 18.7466C17.0707 18.8873 17.4253 18.9154 17.7593 18.8261C18.0933 18.7368 18.3866 18.5355 18.5901 18.2559C18.7936 17.9763 18.8951 17.6353 18.8774 17.2899C18.8598 16.9445 18.7242 16.6156 18.4933 16.3582C18.3514 16.1998 18.1775 16.0732 17.9833 15.9868C17.789 15.9003 17.5786 15.8559 17.366 15.8564H17.3676Z" fill="white" stroke="white" stroke-width="0.5"/>
<path d="M16.0846 26.2853C16.0112 26.2854 15.9394 26.2631 15.8785 26.2212C15.8175 26.1793 15.7701 26.1197 15.7424 26.0501C15.7147 25.9804 15.7079 25.9039 15.7228 25.8302C15.7378 25.7566 15.7739 25.6892 15.8264 25.6367L25.6583 15.8221C25.7284 15.752 25.8228 15.7132 25.9208 15.7144C26.0188 15.7156 26.1123 15.7566 26.1808 15.8284C26.2493 15.9002 26.2871 15.997 26.286 16.0974C26.2848 16.1978 26.2448 16.2936 26.1747 16.3637L16.3421 26.1779C16.2732 26.2467 16.1808 26.2852 16.0846 26.2853Z" fill="white" stroke="white" stroke-width="0.5"/>
</svg>
