<svg width="10" height="18" viewBox="0 0 10 18" fill="none" xmlns="http://www.w3.org/2000/svg">
<path d="M9.33446 0.00357615L7.08583 0C4.55956 0 2.92698 1.66023 2.92698 4.22987V6.18012H0.666076C0.470707 6.18012 0.3125 6.33711 0.3125 6.53076V9.35645C0.3125 9.5501 0.470888 9.70691 0.666076 9.70691H2.92698V16.837C2.92698 17.0307 3.08519 17.1875 3.28056 17.1875H6.23039C6.42576 17.1875 6.58397 17.0305 6.58397 16.837V9.70691H9.22749C9.42286 9.70691 9.58107 9.5501 9.58107 9.35645L9.58215 6.53076C9.58215 6.43778 9.54481 6.34873 9.4786 6.28293C9.4124 6.21713 9.3222 6.18012 9.22839 6.18012H6.58397V4.52687C6.58397 3.73225 6.77501 3.32886 7.81932 3.32886L9.3341 3.32832C9.52929 3.32832 9.6875 3.17133 9.6875 2.97786V0.354039C9.6875 0.160748 9.52947 0.00393376 9.33446 0.00357615Z" fill="white"/>
</svg>
