<svg width="24" height="24" viewBox="0 0 24 24" fill="none" xmlns="http://www.w3.org/2000/svg">
<path d="M13.1451 8.72005C13.3051 8.90005 13.3651 9.18005 13.3051 9.42005L11.8251 17C12.1851 16.88 12.6051 17.02 12.7851 17.36C13.0051 17.74 12.8651 18.2401 12.4851 18.4401L11.9851 18.72C11.7851 18.82 11.5851 18.88 11.3651 18.88C11.1051 18.88 10.8451 18.8 10.6251 18.62C10.2251 18.32 10.0251 17.82 10.1251 17.32L11.5451 9.98001H11.2051C10.7651 9.98001 10.4051 9.62001 10.4051 9.18001C10.4051 8.74001 10.7651 8.38001 11.2051 8.38001H12.5251C12.7651 8.40001 12.9851 8.54005 13.1451 8.72005ZM12.7851 5.28001C12.2651 5.28001 11.8451 5.70005 11.8451 6.22005C11.8451 6.74005 12.2651 7.15999 12.7851 7.15999C13.3051 7.15999 13.7251 6.74005 13.7251 6.22005C13.7251 5.70005 13.3051 5.28001 12.7851 5.28001Z" fill="#BC1D4A"/>
</svg>
