<svg width="16" height="16" viewBox="0 0 16 16" fill="none" xmlns="http://www.w3.org/2000/svg">
<path d="M2.19305 0.186523H13.8071C14.9101 0.186523 15.8125 1.00311 15.8125 2.19189V13.8062C15.8125 14.9949 14.9101 15.8115 13.8071 15.8115H2.19305C1.08976 15.8115 0.1875 14.9949 0.1875 13.8062V2.19189C0.1875 1.00311 1.08976 0.186523 2.19305 0.186523ZM11.5697 1.92253C11.1828 1.92253 10.8666 2.23889 10.8666 2.62601V4.30971C10.8666 4.69667 11.1828 5.0132 11.5697 5.0132H13.3358C13.7227 5.0132 14.0393 4.69667 14.0393 4.30971V2.62601C14.0393 2.23889 13.7227 1.92253 13.3358 1.92253H11.5697ZM14.0466 6.79428H12.6714C12.8015 7.2191 12.872 7.6691 12.872 8.13467C12.872 10.7336 10.6972 12.8404 8.01492 12.8404C5.33284 12.8404 3.15836 10.7336 3.15836 8.13467C3.15836 7.66878 3.22863 7.21894 3.3589 6.79428H1.92384V13.3945C1.92384 13.7361 2.20331 14.0157 2.54503 14.0157H13.4258C13.7675 14.0157 14.047 13.7362 14.047 13.3945V6.79428H14.0466ZM8.01476 4.92448C6.28179 4.92448 4.87673 6.28572 4.87673 7.96509C4.87673 9.64447 6.28179 11.0057 8.01476 11.0057C9.74789 11.0057 11.1531 9.64447 11.1531 7.96509C11.1531 6.28572 9.74805 4.92448 8.01476 4.92448Z" fill="white"/>
</svg>
