<svg width="18" height="18" viewBox="0 0 18 18" fill="none" xmlns="http://www.w3.org/2000/svg">
<path d="M17.7752 0.225C17.4752 -0.075 17.0252 -0.075 16.7252 0.225L12.7502 4.2V1.5C12.7502 1.05 12.4502 0.75 12.0002 0.75C11.5502 0.75 11.2502 1.05 11.2502 1.5V6C11.2502 6.075 11.2502 6.225 11.3252 6.3C11.4002 6.45 11.5502 6.6 11.7002 6.675C11.7752 6.75 11.9252 6.75 12.0002 6.75H16.5002C16.9502 6.75 17.2502 6.45 17.2502 6C17.2502 5.55 16.9502 5.25 16.5002 5.25H13.8002L17.7752 1.275C18.0752 0.975 18.0752 0.525 17.7752 0.225Z" fill="white"/>
<path d="M15.0002 17.175C14.9252 17.175 14.8502 17.175 14.7752 17.175C12.3752 16.875 9.97519 16.05 7.95019 14.775C6.07519 13.575 4.4252 11.925 3.2252 10.05C1.8752 8.025 1.0502 5.625 0.825195 3.225C0.825195 2.625 0.975195 2.025 1.3502 1.575C1.7252 1.125 2.2502 0.825 2.85019 0.75C2.92519 0.75 3.0002 0.75 3.0752 0.75H5.32519C6.45019 0.75 7.42519 1.575 7.57519 2.7C7.65019 3.375 7.80019 4.05 8.02519 4.65C8.32519 5.475 8.10019 6.375 7.50019 7.05L6.97519 7.575C7.87519 8.925 9.00019 10.125 10.4252 11.025L10.9502 10.5C11.5502 9.9 12.5252 9.675 13.3502 9.975C13.9502 10.2 14.6252 10.35 15.3002 10.425C16.4252 10.575 17.2502 11.55 17.2502 12.675V14.925C17.2502 15.525 17.0252 16.125 16.5752 16.5C16.1252 16.875 15.6002 17.175 15.0002 17.175ZM5.32519 2.25H3.0752C2.8502 2.25 2.6252 2.4 2.4752 2.55C2.4002 2.7 2.3252 2.85 2.3252 3.075C2.5502 5.25 3.3002 7.35 4.5002 9.225C5.6252 10.95 7.05019 12.45 8.77519 13.5C10.6502 14.7 12.7502 15.45 14.9252 15.675C15.2252 15.675 15.3752 15.6 15.5252 15.45C15.6752 15.3 15.7502 15.15 15.7502 14.925V12.675C15.7502 12.3 15.4502 12 15.0752 11.925C14.3252 11.85 13.5752 11.625 12.8252 11.325C12.5252 11.25 12.2252 11.25 12.0002 11.475L11.0252 12.45C10.8002 12.675 10.4252 12.75 10.1252 12.6C8.10019 11.475 6.45019 9.825 5.32519 7.8C5.2502 7.5 5.3252 7.125 5.5502 6.9L6.52519 5.925C6.67519 5.775 6.75019 5.4 6.67519 5.175C6.37519 4.425 6.2252 3.675 6.0752 2.925C6.0752 2.55 5.70019 2.25 5.32519 2.25Z" fill="white"/>
</svg>
