<svg width="20" height="20" viewBox="0 0 20 20" fill="none" xmlns="http://www.w3.org/2000/svg">
<path d="M19.75 0.24998C20.0833 0.583313 20.0833 1.08331 19.75 1.41665L15.3333 5.83331L18.3333 5.83331C18.8333 5.83331 19.1667 6.16665 19.1667 6.66665C19.1667 7.16665 18.8333 7.49998 18.3333 7.49998L13.3333 7.49998C13.25 7.49998 13.0833 7.49998 13 7.41665C12.8333 7.33331 12.6667 7.16665 12.5833 6.99998C12.5 6.91665 12.5 6.74998 12.5 6.66665L12.5 1.66665C12.5 1.16665 12.8333 0.833314 13.3333 0.833314C13.8333 0.833314 14.1667 1.16665 14.1667 1.66665L14.1667 4.66665L18.5833 0.24998C18.9167 -0.0833535 19.4167 -0.0833535 19.75 0.24998Z" fill="#BC1D4A"/>
<path d="M0.916667 3.33331C0.916667 3.41665 0.916667 3.49998 0.916667 3.58331C1.25 6.24998 2.16667 8.91665 3.58333 11.1666C4.91667 13.25 6.75 15.0833 8.83333 16.4166C11.0833 17.9166 13.75 18.8333 16.4167 19.0833C17.0833 19.0833 17.75 18.9166 18.25 18.5C18.75 18.0833 19.0833 17.5 19.1667 16.8333C19.1667 16.75 19.1667 16.6666 19.1667 16.5833L19.1667 14.0833C19.1667 12.8333 18.25 11.75 17 11.5833C16.25 11.5 15.5 11.3333 14.8333 11.0833C13.9167 10.75 12.9167 11 12.1667 11.6666L11.5833 12.25C10.0833 11.25 8.75 9.99998 7.75 8.41665L8.33333 7.83331C9 7.16665 9.25 6.08331 8.91667 5.16665C8.66667 4.49998 8.5 3.74998 8.41667 2.99998C8.25 1.74998 7.16667 0.833314 5.91667 0.833314L3.41667 0.833314C2.75 0.833314 2.08333 1.08331 1.66667 1.58331C1.25 2.08331 0.916667 2.66665 0.916667 3.33331ZM17.5 14.0833L17.5 16.5833C17.5 16.8333 17.3333 17.0833 17.1667 17.25C17 17.3333 16.8333 17.4166 16.5833 17.4166C14.1667 17.1666 11.8333 16.3333 9.75 15C7.83333 13.75 6.16667 12.1666 5 10.25C3.66667 8.16665 2.83333 5.83331 2.58333 3.41665C2.58333 3.08331 2.66667 2.91665 2.83333 2.74998C3 2.58331 3.16667 2.49998 3.41667 2.49998L5.91667 2.49998C6.33333 2.49998 6.66667 2.83331 6.75 3.24998C6.83333 4.08331 7.08333 4.91665 7.41667 5.74998C7.5 6.08331 7.5 6.41665 7.25 6.66665L6.16667 7.74998C5.91667 7.99998 5.83333 8.41665 6 8.74998C7.25 11 9.08333 12.8333 11.3333 14.0833C11.6667 14.1666 12.0833 14.0833 12.3333 13.8333L13.4167 12.75C13.5833 12.5833 14 12.5 14.25 12.5833C15.0833 12.9166 15.9167 13.0833 16.75 13.25C17.1667 13.25 17.5 13.6666 17.5 14.0833Z" fill="#BC1D4A"/>
</svg>
