<svg xmlns="http://www.w3.org/2000/svg" viewBox="0 0 64 64"><g id="Layer_61" data-name="Layer 61"><path d="M32,22.89A9.13,9.13,0,0,0,22.88,32c.49,12.07,17.75,12.06,18.24,0A9.13,9.13,0,0,0,32,22.89Zm0,16.22A7.12,7.12,0,0,1,24.88,32c.33-9.42,13.9-9.42,14.24,0A7.13,7.13,0,0,1,32,39.11Z"/><path d="M60.94,31.2a1.18,1.18,0,0,0,0-.67c-1.71-4.22-5.39-8-9.13-7.45a21.21,21.21,0,0,0-1.35-2.53,6.35,6.35,0,0,1,6.44.38,1,1,0,0,0,.92,0,1,1,0,0,0,.24-1.58c-3.22-3.23-8.1-5.3-11.32-3.29a23.9,23.9,0,0,0-1.92-1.57,6.26,6.26,0,0,1,6-2.08,1.07,1.07,0,0,0,.94-.35,1,1,0,0,0-.37-1.56c-4.19-1.77-9.48-1.85-11.72,1.19A19.56,19.56,0,0,0,37,10.86a6.23,6.23,0,0,1,4.72-4.25,1.05,1.05,0,0,0,.73-.69,1,1,0,0,0-.94-1.29c-4.56,0-9.47,2-10.33,5.69a20.48,20.48,0,0,0-2.46.24,6.23,6.23,0,0,1,2.78-5.73,1,1,0,0,0,.42-.91,1,1,0,0,0-1.35-.84c-4.23,1.7-8,5.37-7.45,9.12a22.58,22.58,0,0,0-2.53,1.34,6.34,6.34,0,0,1,.37-6.43A1,1,0,0,0,20.81,6,1,1,0,0,0,19.34,6c-2.77,2.77-5.4,7.91-3.28,11.33a20.7,20.7,0,0,0-1.57,1.91,6.24,6.24,0,0,1-2.08-6,1.06,1.06,0,0,0-.35-.95,1,1,0,0,0-1.56.37c-1.77,4.18-1.86,9.46,1.19,11.71A21.54,21.54,0,0,0,10.85,27a6.25,6.25,0,0,1-4.24-4.72,1.07,1.07,0,0,0-.69-.73,1,1,0,0,0-1.29.94c0,4.56,2,9.46,5.68,10.32,0,.83.12,1.65.24,2.47a6.25,6.25,0,0,1-5.72-2.78,1,1,0,0,0-.91-.42,1,1,0,0,0-.85,1.35c1.74,4.18,5.2,8,9.12,7.45a21.83,21.83,0,0,0,1.34,2.53,6.38,6.38,0,0,1-6.43-.37,1,1,0,0,0-.91,0,1,1,0,0,0-.25,1.58c3.15,3,7.52,5.37,11.31,3.29a20.1,20.1,0,0,0,1.92,1.58,6.24,6.24,0,0,1-6,2.06,1.06,1.06,0,0,0-.94.35,1,1,0,0,0,.36,1.56c3.64,1.54,9.18,2.14,11.72-1.18a21,21,0,0,0,2.74.83,6.37,6.37,0,0,1-4.81,4.28,1,1,0,0,0,.3,1.94h0c4.53,0,9.41-2,10.31-5.68a20.81,20.81,0,0,0,2.48-.24,6.26,6.26,0,0,1-2.79,5.72A1,1,0,0,0,33.1,61h0c4.33-1.39,8.4-5.42,7.82-9.19a23.59,23.59,0,0,0,2.53-1.34,6.24,6.24,0,0,1-.34,6.33A1,1,0,0,0,44,58.34h0a1,1,0,0,0,.7-.29c3.22-3.21,5.28-8.08,3.29-11.3a20.22,20.22,0,0,0,1.59-1.92,6.25,6.25,0,0,1,2.06,6,1,1,0,0,0,1,1.19h0a1,1,0,0,0,.92-.61c1.78-4.18,1.88-9.47-1.18-11.71A21.06,21.06,0,0,0,53.15,37a6.27,6.27,0,0,1,4.25,4.73,1.05,1.05,0,0,0,1,.79h0a1.05,1.05,0,0,0,1-1c0-4.56-2-9.47-5.69-10.33a20.45,20.45,0,0,0-.24-2.47,6.22,6.22,0,0,1,5.73,2.79,1.1,1.1,0,0,0,.83.44h0A1,1,0,0,0,60.94,31.2Zm-8.82-4.31h0a1,1,0,0,0-.78,1.18,0,0,0,0,0,0,0,26.88,26.88,0,0,1,.42,4.09.59.59,0,0,0,.13.34,1,1,0,0,0,.79.48c1.73.09,3,1.59,3.73,3.48a7.81,7.81,0,0,0-3.85-1.69h0a1,1,0,0,0-1,.47,31.27,31.27,0,0,1-1.34,4.41,1,1,0,0,0,.16,1.12l0,0h0c1.72.85,2.42,2.61,2.35,4.85a7.7,7.7,0,0,0-2.88-3.06l0,0a1.06,1.06,0,0,0-1.38.3A17.85,17.85,0,0,1,45.94,46a1,1,0,0,0-.3.72,1.12,1.12,0,0,0,.26.67c1.17,1.28,1,3.21.18,5.09a7.8,7.8,0,0,0-1.51-3.9v0a1,1,0,0,0-1.39-.25,19.26,19.26,0,0,1-3.79,2,1,1,0,0,0-.57.65.86.86,0,0,0,0,.61c.57,1.64-.37,3.34-1.84,4.76a7.76,7.76,0,0,0,.15-4.17v0a1,1,0,0,0-1-.82,20.89,20.89,0,0,1-4.1.42h0a1,1,0,0,0-.86.52s0,0,0,.07a.88.88,0,0,0-.05.15c-.12,1.85-1.51,3.14-3.53,3.94a7.87,7.87,0,0,0,1.69-3.84s0,0,0,0a1,1,0,0,0-.74-1.12,21.37,21.37,0,0,1-4.13-1.23,1,1,0,0,0-1.15.18c-.86,1.69-2.58,2.4-4.82,2.34a7.78,7.78,0,0,0,3-2.87l0,0a1,1,0,0,0-.17-1.25,45,45,0,0,1-3.51-2.84,1,1,0,0,0-.92.09c-1.36,1.21-3.27,1.12-5.24.27a7.89,7.89,0,0,0,3.9-1.51l0,0a.79.79,0,0,0,.3-.35.91.91,0,0,0,.09-.7,31.63,31.63,0,0,1-2.15-4.07,1,1,0,0,0-1.28-.63c-1.63.57-3.33-.36-4.75-1.81,1.15.37,5.35.92,5-1.14A20.54,20.54,0,0,1,12.27,32s0,0,0,0a1,1,0,0,0-.95-1c-1.73-.08-3-1.59-3.73-3.48A7.81,7.81,0,0,0,11.4,29.2a1,1,0,0,0,1.22-.83v0a19,19,0,0,1,1.19-4s0,0,0-.07h0A1,1,0,0,0,13.36,23c-1.57-.75-2.11-2.62-2.07-4.66.56,1.07,3,4.38,4.27,2.78a24.16,24.16,0,0,1,2.59-3.2,1,1,0,0,0,.2-.54,1.18,1.18,0,0,0-.26-.7c-1.17-1.29-1-3.22-.18-5.1a7.73,7.73,0,0,0,1.53,3.91v0a1,1,0,0,0,1.39.24,31.62,31.62,0,0,1,4.09-2.25.94.94,0,0,0,.28-.88c-.58-1.73.25-3.45,1.8-4.93a7.74,7.74,0,0,0-.13,4.19,1,1,0,0,0,1.18.79c1.44-.4,3-.2,4.42-.53a1,1,0,0,0,.53-.81c.08-1.74,1.59-3,3.48-3.74a7.87,7.87,0,0,0-1.7,3.85s0,0,0,0a1,1,0,0,0,.8,1.16,18.48,18.48,0,0,1,4.12,1.22,1,1,0,0,0,.67.05,1.08,1.08,0,0,0,.62-.53c.75-1.56,2.62-2.1,4.66-2.07a7.88,7.88,0,0,0-3.06,2.87v0a1,1,0,0,0,.16,1.25c1.23.84,2.36,1.87,3.52,2.84a1,1,0,0,0,.91-.09c1.37-1.21,3.27-1.12,5.25-.27a7.89,7.89,0,0,0-3.92,1.53h0a1,1,0,0,0-.24,1.39,18.55,18.55,0,0,1,2,3.77,1,1,0,0,0,.45.5,1,1,0,0,0,.68.1c1.7-.59,3.42.27,4.89,1.8A7.8,7.8,0,0,0,52.12,26.89Z"/></g></svg>