<svg width="18" height="16" viewBox="0 0 18 16" fill="none" xmlns="http://www.w3.org/2000/svg">
<path d="M0.366082 7.67963L4.32643 9.22299L5.85933 14.3703C5.95741 14.7 6.3435 14.8218 6.59977 14.6031L8.80733 12.724C9.03873 12.5271 9.36833 12.5173 9.61016 12.7006L13.5918 15.719C13.866 15.927 14.2543 15.7702 14.3231 15.4243L17.2399 0.774901C17.3149 0.397077 16.9594 0.0818855 16.6148 0.221027L0.361442 6.76779C-0.0396578 6.92931 -0.036163 7.52224 0.366082 7.67963ZM5.61229 8.40142L13.3523 3.42397C13.4914 3.33478 13.6345 3.53117 13.5151 3.64686L7.12731 9.84661C6.90278 10.0648 6.75795 10.3569 6.71693 10.6739L6.49934 12.3576C6.47052 12.5824 6.16807 12.6047 6.10866 12.3871L5.2718 9.31685C5.17595 8.96666 5.31563 8.5926 5.61229 8.40142Z" fill="white"/>
</svg>
