<svg width="1630" height="685" fill="none" xmlns="http://www.w3.org/2000/svg"><path opacity=".02" fill-rule="evenodd" clip-rule="evenodd" d="M223.825 627.447c-7.202 21.749-6.589 31.697-6.111 39.449.109 1.773.211 3.431.211 5.089 0 3.479 1.013 5.939 1.851 7.976.593 1.441 1.099 2.671 1.099 3.901 0 5.939-44.25-11.877-53.1-41.569-44.25 5.939-147.5-14.846-165.2-74.23-23.6-77.199 118.001-178.152 300.9-237.536l3.259-6.094c19.879-37.18 42.685-79.834 73.441-130.49l4.476-8.103.05-.09.017-.031c27.343-49.48 48.557-87.869 48.557-107.575 0-8.907-2.95-11.877-5.9-11.877s2.95-2.969 5.9-2.969 11.8 2.97 17.7 5.939c20.65 14.846 38.35 32.661 38.35 41.568 0 5.939-23.6 47.508-59 106.892l-53.1 89.076c64.9-14.846 129.8-23.754 197.65-29.692 20.65-41.569 32.45-86.107 29.5-127.676-8.85-106.891-126.85-121.737-200.6-112.83-150.45 14.846-283.199 139.553-277.299 184.091 0 8.908 11.8 20.785 64.9 26.723 2.95 0 5.9 2.969 0 5.938-32.45 2.97-53.101 0-67.851-2.969-11.8-2.969-35.4-14.846-38.35-41.569-8.85-74.23 126.85-192.998 303.85-207.844 109.15-8.908 241.9 44.538 259.6 187.06 2.95 29.692 0 59.384-11.8 89.076h.001c15.923 0 30.986 0 43.799.467 19.963-31.297 45.488-62.69 71.013-86.317 29.413-29.701 58.826-50.492 82.357-53.462 29.413-5.941 67.65 23.76 70.592 47.522 2.941 23.761-102.947 127.715-191.187 142.566-14.707 29.701-17.648 53.462-17.648 65.342 0 8.911 5.883 8.911 14.707 8.911 11.765-2.97 26.472-8.911 32.354-14.851 45.401-31.518 115.438-85.15 175.781-155.562 16.736-26.09 37.717-51.706 60.114-73.052 32.402-32.598 61.862-50.379 88.372-59.27h5.89c26.51-2.963 58.92 11.855 61.86 35.562 2.95 17.781-32.4 56.306-47.13 62.233 0 0-2.94 0 0-2.964 8.84-14.817 26.51-59.269 23.57-71.123 0-2.963-2.95-5.927-5.89-2.963-38.3 5.927-97.21 68.159-132.563 130.392-26.512 47.415-38.295 82.977-38.295 97.794 0 8.89 5.892 11.854 14.729 11.854 11.783-2.964 29.458-11.854 35.349-14.818 42.21-29.195 100.96-79.784 150.86-136.865 25.93-46.215 67.18-90.246 102.2-106.089 11.81-14.842 38.38-38.589 59.04-41.557 41.34-5.937 73.81 20.778 82.67 53.43 20.44-1.713 39.9-5.401 53.84-8.216 4.43-8.84 8.34-16.364 11.32-21.614 8.83-20.779 11.77-41.558 2.94-44.526 0 0 11.78-2.969 23.55 2.968 23.56 11.874 32.39 26.716 35.33 35.621 0 4.347-9.47 23.01-21.47 46.674-4.39 8.662-9.12 17.993-13.86 27.537 8.84-14.842 20.61-32.653 32.39-47.495 23.55-29.684 73.6-89.053 94.21-97.958 8.83-2.968 29.44 20.78 32.38 44.526 0 5.937 0 26.716-5.89 32.653 0-4.346-1.58-7.101-3.58-10.595-.73-1.278-1.52-2.656-2.31-4.247-5.88-5.937-14.72-8.905-29.44-5.937-29.44 8.906-55.93 23.748-88.32 62.337-41.21 53.432-70.65 106.863-85.37 148.421-5.89 17.811-8.84 29.685-5.89 32.653 2.94 2.969 0 5.937-5.89 5.937s-47.1-23.747-44.16-38.59c1.22-3.688 2.44-7.887 3.87-12.805 2.02-6.956 4.46-15.351 7.91-25.784l20.6-41.558c9.09-20.148 22.65-49.338 34.48-73.621-12.88 4.061-29.03 8.478-46.64 11.429 2.95 53.43-88.57 204.815-171.24 216.689-47.24 8.905-91.52-8.905-97.43-50.462-2.04-14.345.46-31.048 6.23-48.59-52.92 67.556-122.51 135.517-158.842 140.086-17.674 2.964-73.643-26.671-76.589-50.379-1.931-15.541 1.834-34.585 9.741-55.044-56.676 70.107-129.318 140.481-166.074 147.44-23.531 2.97-76.475-29.701-79.416-53.462-2.942-17.821 2.941-41.582 14.706-65.343 4.804-9.702 10.408-19.727 16.626-29.811-14.402.275-28.804.982-43.207 2.794-53.1 148.46-241.9 293.951-410.05 341.458zm-44.25-38.599c14.75-41.569 41.3-92.046 59-124.707 5.9-14.846 20.65-44.538 47.2-92.045-147.5 59.384-271.4 172.213-238.95 219.721 14.75 20.784 50.15 17.815 61.95 14.846 3.048-.682 5.94-1.324 8.716-1.941l.058-.013c21.383-4.75 35.936-7.983 62.026-15.861zm182.9-246.444c-41.3 71.26-79.65 142.521-112.1 219.721 132.75-59.384 259.6-157.368 321.55-267.229-70.8 8.908-135.7 23.754-209.45 47.508zm362.691-32.368c35.295-14.851 76.474-53.462 105.887-83.164 29.414-29.701 41.179-65.342 38.238-68.313-38.237 8.911-105.888 86.134-144.125 151.477zM1172.7 330.95c41.34-5.937 129.91-115.765 156.48-192.942-20.67 2.968-41.33 0-56.1-5.937-67.9 35.62-121.04 148.417-115.14 184.037 0 11.873 2.95 17.81 14.76 14.842zm138.77-255.277c-14.77 5.936-23.62 17.81-23.62 26.715 0 11.873 17.71 17.81 47.24 14.841 2.95-8.905 2.95-14.841 0-23.746-2.96-14.842-8.86-23.747-23.62-17.81z" fill="#fff"/></svg>