<svg width="682" height="984" fill="none" xmlns="http://www.w3.org/2000/svg"><path opacity=".02" d="M355.014 409.608c-9.343-4.708-18.685-4.708-28.028-9.417-65.397-23.54-168.164-80.038-168.164-188.325 0-103.579 65.397-160.077 186.849-160.077 140.137 0 228.891 84.747 261.589 258.948l4.672 18.832h46.712V0h-46.712v23.54c0 18.833-4.672 28.25-28.028 28.25-9.342 0-32.699-4.709-84.082-23.541C453.109 9.416 401.726 0 350.343 0 144.808 0 14.013 108.287 14.013 282.488 9.344 466.105 191.522 527.311 331.659 579.1c9.342 4.709 23.356 9.417 32.698 9.417 79.411 28.249 168.165 84.746 168.165 183.617s-84.083 164.785-205.535 164.785c-70.068 0-135.465-18.833-182.178-51.79-32.698-23.54-46.712-37.665-56.055-51.789 9.343 4.708 18.685 4.708 28.028 4.708 65.397 0 112.109-47.082 112.109-112.995 0-65.914-51.383-112.996-116.78-112.996C46.712 612.057 0 663.847 0 734.469 0 800.383 32.699 856.88 98.096 908.67 163.493 955.751 242.904 984 336.329 984c93.424 0 177.507-28.249 242.904-80.038C644.63 847.464 682 781.55 682 696.804c-4.671-178.909-182.178-240.115-326.986-287.196z" fill="#fff"/></svg>